{"glyphs":{"0":{"ha":583,"x_min":49,"x_max":522,"o":"m 328 119 q 298 174 317 150 q 256 219 279 199 q 209 256 233 239 q 163 288 185 272 q 79 401 110 324 q 49 579 49 478 q 81 676 49 629 q 153 768 113 722 q 231 860 194 814 q 278 956 268 907 q 315 888 294 907 q 356 862 335 868 q 399 853 378 856 q 436 835 419 850 q 497 730 471 800 q 522 556 522 660 q 485 378 522 450 q 401 274 449 306 q 374 247 383 260 q 358 217 364 233 q 346 176 351 200 q 328 119 340 153 m 285 793 q 248 744 274 771 q 197 684 222 717 q 153 612 171 651 q 143 525 136 572 q 175 432 153 463 q 223 383 197 401 q 274 349 249 365 q 314 297 299 332 q 328 338 319 321 q 348 372 338 356 q 370 406 358 388 q 393 449 382 424 q 414 513 407 486 q 421 565 421 539 q 413 621 421 590 q 393 697 406 651 q 372 740 383 731 q 348 751 361 749 q 319 759 335 753 q 285 793 303 765 z "},"1":{"ha":281,"x_min":-43,"x_max":310,"o":"m 203 372 q 219 344 203 356 q 255 321 235 333 q 292 293 275 308 q 310 253 308 278 q 247 269 275 272 q 196 244 218 265 q 160 185 174 222 q 144 99 147 147 q 117 181 136 147 q 73 231 99 215 q 17 242 47 246 q -43 210 -12 238 q -17 258 -42 236 q 38 299 8 279 q 93 337 68 319 q 118 372 118 354 q 117 533 117 458 q 116 598 117 565 q 115 660 115 631 q 115 712 115 689 q 115 749 115 735 q 82 765 103 765 q 39 754 61 765 q -5 726 17 743 q -43 690 -26 708 q -25 743 -37 721 q 5 781 -12 765 q 43 808 22 797 q 85 828 64 819 q 177 885 128 846 q 258 965 226 924 q 249 914 254 939 q 237 869 243 889 q 224 837 231 850 q 214 822 218 824 q 207 815 208 819 q 204 804 206 810 q 203 790 203 799 q 204 629 204 707 q 204 492 204 563 q 203 372 204 421 z "},"2":{"ha":471,"x_min":-37,"x_max":599,"o":"m 599 111 q 531 119 565 100 q 465 163 497 138 q 403 208 433 188 q 347 224 374 229 q 255 220 293 213 q 181 239 217 228 q 108 258 146 250 q 15 256 69 265 q 42 342 26 303 q 76 415 57 381 q 122 483 96 450 q 179 551 147 515 q 215 582 190 564 q 257 622 239 600 q 278 667 275 643 q 249 714 281 690 q 204 719 226 729 q 165 685 182 708 q 140 632 149 663 q 138 578 132 601 q 96 698 125 631 q 38 826 67 765 q -37 971 1 897 q 33 892 -1 928 q 91 834 61 861 q 139 801 121 807 q 174 800 156 796 q 213 810 193 804 q 251 818 232 815 q 289 813 271 821 q 325 788 308 804 q 351 749 342 771 q 361 701 361 728 q 349 643 361 674 q 319 592 335 611 q 285 554 304 572 q 244 515 267 536 q 196 463 222 494 q 149 405 168 429 q 126 349 129 381 q 176 344 153 351 q 220 333 199 338 q 262 332 242 328 q 306 361 282 336 q 319 392 318 375 q 319 423 321 408 q 317 448 318 438 q 322 460 315 458 q 338 444 329 461 q 365 394 346 428 q 418 310 383 360 q 511 199 453 261 q 554 151 540 167 q 574 129 568 136 q 585 120 581 122 q 599 111 589 118 z "},"3":{"ha":446,"x_min":-50,"x_max":422,"o":"m 107 543 q 131 591 107 563 q 203 635 156 619 q 242 663 229 644 q 254 702 254 681 q 244 746 254 724 q 218 785 235 768 q 180 788 208 794 q 124 765 151 782 q 82 721 97 747 q 85 664 67 694 q 55 703 61 688 q 51 731 49 719 q 62 751 54 742 q 74 769 69 760 q 76 790 78 778 q 56 819 74 801 q 14 855 31 844 q -15 863 -3 865 q -34 849 -26 861 q -50 815 -42 836 q -35 876 -50 857 q 3 899 -21 894 q 57 895 28 903 q 115 876 86 888 q 165 874 144 865 q 206 897 185 883 q 251 918 226 910 q 315 913 276 926 q 375 880 354 899 q 404 839 396 861 q 412 792 413 817 q 407 746 411 768 q 391 762 396 757 q 381 771 386 767 q 370 781 376 775 q 351 800 364 786 q 330 812 343 810 q 296 814 317 814 q 322 781 308 801 q 342 734 335 760 q 344 681 349 708 q 317 629 340 653 q 282 602 299 611 q 253 588 265 593 q 233 581 240 583 q 226 572 226 578 q 293 548 263 572 q 344 488 324 524 q 376 412 365 453 q 381 339 386 371 q 386 298 376 314 q 406 265 396 282 q 419 228 415 249 q 406 171 422 207 q 370 228 388 217 q 326 233 353 239 q 256 217 299 228 q 142 208 213 206 q 108 215 126 208 q 72 233 89 222 q 44 256 56 243 q 31 283 32 269 q 75 281 63 268 q 76 308 88 294 q 47 317 61 325 q 19 294 33 308 q -11 270 4 281 q -44 274 -26 260 q 10 319 -10 292 q 47 374 31 347 q 81 421 63 400 q 133 446 100 442 q 106 409 110 426 q 103 386 103 392 q 107 360 103 375 q 122 330 111 344 q 152 305 133 315 q 199 294 171 294 q 283 338 265 294 q 275 460 300 381 q 247 510 264 493 q 206 534 229 526 q 158 542 183 542 q 107 543 132 543 z "},"4":{"ha":536,"x_min":-126,"x_max":593,"o":"m 339 456 q 288 440 308 440 q 251 448 267 440 q 220 466 235 456 q 188 483 206 476 q 145 489 169 490 q 85 471 121 488 q 51 544 61 501 q 46 631 42 588 q 67 715 50 675 q 115 779 85 754 q 117 810 122 793 q 89 856 113 828 q 63 894 76 875 q 27 928 50 913 q -32 956 4 944 q -126 974 -68 968 q -38 965 -90 974 q 64 928 14 956 q 152 847 114 900 q 197 707 190 794 q 155 687 171 707 q 131 640 139 667 q 125 590 124 614 q 135 557 126 565 q 178 572 158 572 q 213 565 197 572 q 243 547 229 558 q 272 529 257 536 q 303 524 286 522 q 339 540 319 525 l 339 972 q 369 869 351 911 q 410 798 388 826 q 460 751 433 769 q 514 721 486 733 q 467 684 485 704 q 440 647 450 664 q 424 607 429 626 q 423 577 424 592 q 422 550 422 563 l 422 522 q 442 508 419 511 q 495 515 465 504 q 553 552 525 525 q 593 629 582 579 q 567 548 593 579 q 508 496 540 517 q 450 463 476 475 q 424 438 424 450 l 424 149 l 424 6 q 393 109 411 67 q 352 180 375 151 q 303 226 329 208 q 249 257 276 244 q 294 293 276 274 q 322 331 313 313 q 339 371 333 350 l 339 456 z "},"5":{"ha":447,"x_min":-36,"x_max":518,"o":"m 88 286 q 58 299 72 303 q 28 285 43 294 q -2 269 14 275 q -36 276 -18 263 q 19 324 -1 294 q 56 380 39 353 q 92 428 72 407 q 147 454 113 450 q 119 417 124 435 q 115 393 115 399 q 128 341 114 361 q 165 310 143 321 q 213 297 188 299 q 261 301 239 294 q 299 322 283 307 q 314 357 314 336 q 308 447 314 415 q 276 492 303 478 q 194 509 250 507 q 40 511 139 511 l 40 824 q 12 830 33 836 q -25 796 -10 824 q -15 845 -25 824 q 13 882 -4 867 q 52 906 31 897 q 96 914 74 914 q 148 908 121 914 q 201 897 175 901 q 250 892 226 892 q 292 906 274 893 q 344 930 314 922 q 406 937 375 938 q 463 928 436 936 q 503 904 489 919 q 516 867 518 889 q 488 819 514 846 q 472 867 488 854 q 436 878 457 879 q 394 867 415 876 q 364 849 374 857 q 394 764 394 819 q 344 626 394 708 q 336 729 344 693 q 304 782 328 765 q 238 801 281 799 q 126 804 196 804 l 126 599 q 272 590 218 599 q 353 556 325 582 q 390 483 382 531 q 397 357 397 436 q 401 304 397 329 q 403 257 406 279 q 388 215 401 235 q 340 181 375 196 q 340 242 350 228 q 290 217 331 256 q 231 192 269 200 q 151 188 192 185 q 78 206 111 190 q 40 251 46 222 q 69 245 57 243 q 87 254 81 247 q 93 270 93 261 q 88 286 93 279 z "},"6":{"ha":519,"x_min":1,"x_max":513,"o":"m 461 858 q 508 770 503 810 q 496 703 513 731 q 450 664 479 676 q 394 656 421 651 q 353 687 368 661 q 349 763 338 713 q 358 719 349 732 q 380 708 368 707 q 404 719 392 708 q 422 745 417 729 q 422 780 426 761 q 394 814 417 799 q 317 843 361 838 q 239 828 274 849 q 188 757 204 808 q 194 614 171 706 q 185 525 194 556 q 175 472 175 494 q 192 406 175 432 q 236 367 210 381 q 292 351 263 353 q 349 356 322 349 q 392 381 375 364 q 410 424 410 399 q 383 492 410 463 q 324 532 357 522 q 261 527 292 542 q 222 463 231 513 q 205 539 194 507 q 246 587 215 571 q 319 600 276 603 q 403 572 363 597 q 455 524 432 554 q 487 456 478 493 q 488 378 496 418 q 446 300 479 338 q 397 268 426 278 q 338 258 368 258 q 280 261 307 257 q 239 272 253 265 q 198 272 215 281 q 178 249 181 263 q 196 222 176 235 q 267 210 215 210 q 181 194 210 186 q 139 222 153 201 q 119 267 125 243 q 101 301 114 292 q 53 354 74 321 q 44 431 32 388 q 65 405 56 411 q 81 399 74 399 q 94 406 88 399 l 94 571 q 90 581 93 574 q 84 598 88 588 q 74 628 81 608 q 97 651 92 635 q 100 681 103 668 q 87 697 97 694 q 63 677 76 699 q 33 603 49 656 q 1 453 17 550 q 30 681 1 590 q 102 826 58 772 q 199 900 146 879 q 304 920 253 921 q 398 901 356 919 q 461 858 440 883 z "},"7":{"ha":479,"x_min":-51,"x_max":479,"o":"m 383 917 q 392 918 381 918 q 419 915 403 918 q 451 903 435 911 q 471 881 467 894 q 478 857 476 867 q 479 838 479 847 q 477 819 479 829 q 472 796 475 810 q 451 747 465 765 q 424 719 438 729 q 389 703 407 707 q 402 656 408 682 q 374 601 396 631 q 321 536 351 571 q 263 465 290 501 q 215 389 235 428 q 194 310 194 350 l 194 104 q 167 182 185 146 q 131 246 150 218 q 93 290 111 274 q 63 308 75 307 q 90 340 79 321 q 107 378 101 360 q 115 410 113 396 q 118 424 118 424 q 138 472 118 444 q 186 527 158 499 q 242 583 214 556 q 285 633 269 611 q 295 667 300 654 q 253 681 290 681 q 263 690 257 685 q 274 700 267 694 q 290 713 281 706 q 260 727 283 718 q 212 747 238 736 q 163 766 186 757 q 133 782 140 775 q 101 803 115 800 q 74 801 86 806 q 49 790 61 797 q 22 780 36 782 q -10 785 8 778 q -51 815 -28 792 q -15 826 -26 815 q 1 849 -4 836 q 12 873 7 861 q 31 888 17 885 q 72 883 44 892 q 150 847 100 875 q 290 791 232 796 q 379 806 349 786 q 412 858 410 825 q 383 917 414 892 z "},"8":{"ha":510,"x_min":50,"x_max":469,"o":"m 381 576 q 440 447 428 507 q 451 343 451 386 q 375 241 414 275 q 297 198 336 207 q 222 200 258 189 q 153 235 186 211 q 94 289 121 258 q 51 350 68 319 q 71 394 69 372 q 67 436 72 415 q 56 477 63 457 q 51 515 50 497 q 68 550 53 533 q 122 581 83 567 q 85 647 88 615 q 93 705 82 679 q 120 749 104 731 q 140 779 136 768 q 136 793 146 790 q 113 796 126 796 q 74 792 97 796 q 82 808 75 800 q 101 824 89 815 q 138 842 114 833 q 176 857 160 851 q 205 868 192 863 q 231 881 218 874 q 261 901 244 889 q 292 919 279 913 q 311 929 304 926 q 325 933 319 933 q 344 858 319 897 q 399 781 369 819 q 449 707 428 743 q 457 640 469 671 q 445 610 449 621 q 435 594 442 600 q 417 585 429 589 q 381 576 404 582 m 190 717 q 178 666 174 688 q 203 634 183 644 q 252 628 222 624 q 317 656 282 632 q 322 659 315 658 q 337 661 328 660 q 355 665 346 663 q 367 675 364 668 q 369 706 374 693 q 354 730 364 718 q 333 753 344 742 q 313 783 321 765 q 277 817 294 817 q 243 799 260 817 q 213 757 226 782 q 190 717 200 732 m 258 558 q 188 533 213 556 q 155 476 164 510 q 149 403 146 443 q 160 326 151 364 q 201 296 178 314 q 253 272 225 278 q 313 282 282 267 q 375 353 343 297 q 363 417 372 383 q 338 479 353 450 q 302 530 322 508 q 258 558 282 551 z "},"9":{"ha":456,"x_min":-29,"x_max":497,"o":"m 346 415 q 346 397 346 415 q 346 351 346 379 q 345 288 346 322 q 344 220 344 254 q 344 157 344 186 q 344 111 344 128 q 306 159 333 139 q 241 197 278 179 q 163 232 204 215 q 83 267 121 249 q 15 309 46 286 q -29 363 -15 332 q 111 315 47 329 q 165 308 138 310 q 215 310 192 306 q 254 326 238 314 q 278 363 271 339 l 278 547 q 237 529 253 547 q 201 489 221 511 q 153 449 182 467 q 72 431 124 431 q 92 474 90 449 q 85 530 93 500 q 62 592 76 560 q 33 655 47 624 q 7 713 18 686 q -4 760 -4 740 q 89 864 36 831 q 197 901 142 897 q 305 883 251 904 q 401 824 358 861 q 469 740 443 788 q 497 644 496 693 q 463 704 482 686 q 426 729 444 722 q 390 738 407 736 q 365 749 374 740 q 353 736 357 749 q 348 704 349 724 q 347 661 347 685 q 347 617 347 638 q 361 603 347 607 q 392 594 375 600 q 422 574 408 588 q 436 535 436 561 q 414 554 426 550 q 389 557 401 558 q 365 551 376 556 q 347 547 354 547 q 347 515 347 536 q 347 472 347 493 q 346 433 346 450 q 346 415 346 417 m 322 799 q 246 833 285 828 q 174 827 207 838 q 115 795 140 817 q 78 747 90 774 q 90 701 78 726 q 116 648 101 675 q 143 592 131 621 q 156 536 156 563 q 173 549 163 536 q 198 576 183 561 q 233 604 213 592 q 278 617 253 617 q 279 675 278 643 q 285 735 281 707 q 298 781 289 763 q 322 799 307 799 z "}," ":{"ha":279,"x_min":0,"x_max":0,"o":""},"ยน":{"ha":1157,"x_min":0,"x_max":0,"o":""},"k":{"ha":418,"x_min":0,"x_max":518,"o":"m 451 288 q 467 265 457 281 q 489 231 478 250 q 508 188 500 211 q 518 144 517 165 q 364 289 439 243 q 226 326 289 335 q 249 354 240 344 q 260 371 257 364 q 259 385 263 378 q 243 404 256 392 q 222 425 231 415 q 207 442 214 435 q 196 456 200 449 q 193 328 194 399 q 191 185 192 267 q 190 6 190 103 q 160 109 178 67 q 119 180 142 151 q 69 226 96 208 q 15 257 43 244 q 61 293 43 274 q 89 331 79 313 q 106 371 100 350 q 104 532 104 457 q 103 597 104 564 q 103 658 103 629 q 103 710 103 688 q 103 747 103 733 q 78 765 90 764 q 55 757 67 767 q 30 731 43 747 q 0 697 17 715 q 18 750 6 728 q 48 788 31 772 q 86 815 65 804 q 128 835 107 826 q 220 892 171 853 q 301 972 269 931 q 283 920 297 946 q 251 873 268 894 q 220 837 235 851 q 201 821 206 822 q 194 813 196 818 q 192 803 193 808 q 190 789 190 797 q 193 713 192 750 q 195 645 194 681 q 196 583 196 610 q 223 602 208 592 q 251 623 238 613 q 274 642 264 633 q 286 656 283 651 q 278 665 289 660 q 256 674 268 669 q 221 682 240 679 q 282 697 251 690 q 335 711 307 704 q 382 725 363 718 q 443 751 419 738 q 494 782 467 764 q 422 690 449 722 q 370 636 394 658 q 315 593 346 614 q 231 533 285 572 q 306 446 278 478 q 349 396 333 414 q 373 369 365 378 q 390 352 381 361 q 412 329 399 343 q 451 288 425 315 z "},"d":{"ha":411,"x_min":-164,"x_max":374,"o":"m 119 694 q 119 690 121 696 q 116 674 117 683 q 117 656 115 665 q 128 643 119 647 q 142 631 136 639 q 150 617 147 624 q 156 599 154 608 l 156 403 q 175 401 163 400 q 203 408 186 403 q 246 429 221 414 q 283 469 271 443 q 295 524 294 496 q 286 578 296 553 q 260 619 276 604 q 222 647 243 633 q 174 674 201 661 q 112 696 147 686 q 29 713 76 706 q -56 732 -19 719 q -115 757 -92 744 q -164 788 -143 772 q -68 769 -115 778 q 19 753 -28 763 q 104 739 67 744 q 189 724 142 733 q 278 694 236 715 q 347 638 319 674 q 371 540 374 601 q 347 440 368 479 q 295 375 325 400 q 233 337 265 350 q 179 315 201 324 q 178 344 183 338 q 162 348 172 350 q 139 339 151 346 q 117 331 126 332 q 81 330 97 326 q 44 349 64 333 q 69 389 63 353 q 75 467 75 425 q 68 576 75 515 q 60 576 64 575 q 53 581 57 578 q 44 592 49 583 q 67 607 58 597 q 83 653 76 617 q 93 679 88 671 q 104 690 99 688 q 114 692 110 693 q 119 694 118 692 z "},"o":{"ha":417,"x_min":51,"x_max":360,"o":"m 203 299 q 197 303 204 296 q 178 323 190 311 q 150 348 165 335 q 121 371 135 361 q 71 430 90 390 q 51 522 51 469 q 90 624 51 575 q 211 714 129 674 q 260 682 233 693 q 307 654 286 671 q 344 601 328 638 q 360 510 360 564 q 351 458 360 482 q 328 414 342 433 q 298 379 314 394 q 268 356 282 364 q 219 321 240 339 q 203 299 199 303 m 203 632 q 178 621 193 632 q 149 592 163 610 q 126 550 135 574 q 122 500 118 526 q 145 447 125 474 q 208 396 165 419 q 253 444 233 422 q 281 487 272 465 q 287 532 290 508 q 263 585 283 556 q 235 616 247 606 q 216 630 224 626 q 205 633 208 633 q 203 632 201 632 z "},"m":{"ha":594,"x_min":-200,"x_max":558,"o":"m 354 107 q 350 106 353 107 q 343 108 347 104 q 333 124 339 111 q 319 164 326 136 q 317 220 313 192 q 330 277 321 249 q 351 332 339 306 q 374 381 364 358 q 405 436 383 403 q 445 506 426 469 q 472 576 464 542 q 464 639 481 611 q 424 676 447 667 q 381 688 401 686 q 332 682 356 689 l 332 431 q 327 406 332 419 q 317 378 322 392 q 306 356 311 365 q 301 349 301 347 q 301 360 301 350 q 300 383 301 369 q 296 409 299 396 q 289 431 293 422 q 276 445 285 439 q 258 460 268 451 q 238 483 249 469 q 219 519 228 496 q 240 508 232 500 q 251 540 247 517 q 255 598 254 564 q 254 664 256 632 q 249 719 253 696 q 242 749 246 743 q 224 758 235 756 q 203 763 214 761 q 175 761 189 763 q 176 542 175 649 q 176 447 176 496 q 177 348 176 397 q 178 253 178 299 q 178 169 178 207 q 53 343 140 282 q 71 365 64 351 q 82 390 78 378 q 90 421 88 406 l 90 542 q 92 629 90 588 q 96 679 93 671 q 106 694 99 688 q 121 710 114 701 q 131 728 128 718 q 128 751 133 738 q 88 767 122 765 q 3 765 53 769 q -100 749 -46 760 q -200 726 -154 739 q -42 800 -122 779 q 128 824 38 821 q 265 806 218 826 q 332 736 311 785 q 419 738 379 750 q 490 701 460 726 q 537 645 519 676 q 556 588 554 614 q 529 469 558 535 q 424 321 500 404 q 371 241 386 279 q 352 173 356 203 q 352 125 349 143 q 354 107 356 107 z "},"K":{"ha":469,"x_min":0,"x_max":1099,"o":"m 1097 154 q 1078 145 1099 151 q 1022 131 1057 139 q 942 116 988 124 q 847 105 897 108 q 744 103 796 101 q 646 117 692 106 q 535 138 575 133 q 474 142 496 143 q 439 135 451 140 q 408 129 426 131 q 406 170 413 151 q 388 205 400 189 q 363 234 376 221 q 336 260 349 247 q 301 297 324 271 q 254 351 278 324 q 196 418 228 383 q 193 310 194 372 q 191 180 192 257 q 190 6 190 103 q 160 109 178 67 q 119 180 142 151 q 69 226 96 208 q 15 257 43 244 q 61 293 43 274 q 89 331 79 313 q 106 371 100 350 q 104 532 104 457 q 103 597 104 564 q 103 658 103 629 q 103 710 103 688 q 103 747 103 733 q 78 765 90 764 q 55 757 67 767 q 30 731 43 747 q 0 697 17 715 q 18 750 6 728 q 48 788 31 772 q 86 815 65 804 q 128 835 107 826 q 220 892 171 853 q 301 972 269 931 q 283 920 297 946 q 251 873 268 894 q 220 837 235 851 q 201 821 206 822 q 194 813 196 818 q 192 803 193 808 q 190 789 190 797 q 193 694 192 740 q 195 614 194 656 q 196 546 196 572 q 240 578 208 554 q 304 631 271 603 q 363 682 338 658 q 392 710 389 706 q 384 719 394 714 q 361 728 374 724 q 326 736 346 733 q 388 751 357 744 q 440 765 413 758 q 488 779 468 772 q 522 794 506 785 q 558 817 539 804 q 600 846 576 829 q 657 882 624 863 q 559 769 611 822 q 451 667 507 715 q 340 577 396 619 q 231 496 285 535 q 352 363 301 413 q 446 282 403 313 q 531 233 489 251 q 628 193 574 214 q 713 172 664 179 q 813 160 761 164 q 916 156 865 157 q 1007 156 967 156 q 1072 156 1047 156 q 1097 154 1096 156 z "},"i":{"ha":261,"x_min":44,"x_max":207,"o":"m 179 260 q 161 268 176 264 q 126 283 146 272 q 108 306 107 294 q 103 333 110 318 q 86 355 96 349 q 76 385 76 361 q 96 389 85 381 q 104 397 101 393 q 103 474 103 438 l 103 569 q 94 579 103 579 q 75 574 86 579 q 47 557 63 568 q 49 574 44 564 q 81 617 54 592 q 105 640 94 631 q 123 657 115 649 q 138 674 131 665 q 156 697 146 683 q 172 719 165 711 q 185 733 179 728 q 194 742 190 739 q 193 585 193 657 q 192 524 193 554 q 192 467 192 493 q 192 422 192 440 q 192 394 192 403 q 204 378 201 386 q 203 357 207 369 q 168 333 175 350 q 164 300 161 317 q 174 270 167 283 q 179 260 181 257 z "},"n":{"ha":485,"x_min":35,"x_max":460,"o":"m 363 729 q 391 751 369 743 q 431 762 413 760 q 454 761 449 764 q 438 753 460 758 q 403 735 414 746 q 388 713 392 724 q 385 686 382 699 q 388 567 386 624 q 390 465 389 518 q 390 376 390 411 q 394 315 399 335 q 369 275 389 294 q 362 302 365 294 q 352 313 358 310 q 336 316 346 315 q 311 324 326 317 q 289 342 296 331 q 281 364 282 353 q 282 392 278 378 q 289 383 285 386 q 303 385 297 375 q 270 440 293 413 q 222 490 247 467 q 160 543 193 517 l 157 413 q 156 365 157 388 q 155 323 156 342 q 154 294 154 304 q 154 283 154 283 q 149 292 154 285 q 135 310 143 300 q 119 331 128 321 q 101 347 110 340 q 72 372 86 360 q 51 415 57 383 q 69 411 67 406 q 69 418 71 414 q 68 479 68 449 q 67 534 67 506 q 67 583 67 563 q 37 599 39 592 q 35 610 35 606 q 38 610 35 611 q 44 608 40 610 q 55 608 49 607 q 69 617 61 610 q 78 632 76 624 q 76 647 79 640 q 67 665 74 656 q 101 692 83 679 q 137 712 117 703 q 178 724 157 721 q 160 699 164 708 q 156 680 156 689 q 158 663 156 671 q 160 643 161 654 q 206 610 181 632 q 254 564 231 588 q 308 506 281 538 l 308 617 q 301 630 308 628 q 265 610 293 632 q 279 638 268 626 q 304 660 290 649 q 334 688 318 672 q 363 729 350 703 z "},"g":{"ha":346,"x_min":11,"x_max":314,"o":"m 239 558 q 242 563 238 558 q 250 576 246 568 q 256 594 254 583 q 250 615 257 604 q 227 631 243 626 q 192 635 211 635 q 154 631 172 635 q 125 625 136 628 q 135 617 132 621 q 136 613 139 613 q 135 584 135 613 q 136 522 136 556 q 137 460 136 489 q 136 432 138 432 q 149 428 135 432 q 182 424 164 425 q 215 426 200 422 q 232 443 231 429 q 221 471 235 471 q 192 464 207 471 q 209 501 188 479 q 253 532 231 522 q 274 544 264 536 q 292 560 285 553 q 308 578 300 568 l 308 485 q 308 417 308 449 q 306 379 307 386 q 303 367 304 372 q 299 357 301 363 q 292 344 296 351 q 279 324 288 336 q 270 301 271 311 q 274 281 269 290 q 285 259 278 271 q 300 233 292 247 q 256 258 271 244 q 235 285 242 271 q 227 312 229 299 q 221 336 225 325 q 150 365 206 378 q 122 349 121 358 q 133 318 124 340 q 95 327 107 319 q 77 345 83 335 q 68 366 71 356 q 57 382 65 376 q 28 409 42 393 q 22 447 14 425 q 34 433 29 436 q 42 431 39 431 q 49 435 46 431 l 51 567 q 35 571 42 567 q 22 579 28 574 q 11 596 15 585 q 44 610 36 603 q 49 626 51 618 q 38 640 47 633 q 17 651 28 647 q 94 697 49 683 q 184 710 140 711 q 263 693 228 708 q 306 651 297 678 q 306 608 314 625 q 283 579 297 590 q 254 563 268 568 q 239 558 240 558 z "},"H":{"ha":446,"x_min":0,"x_max":461,"o":"m 271 642 q 285 640 278 640 q 292 640 292 639 q 321 666 317 656 q 333 688 325 676 q 365 715 342 700 q 451 753 389 729 q 413 722 426 740 q 393 681 399 703 l 392 353 q 416 322 403 333 q 461 300 429 311 q 397 299 429 300 q 340 317 364 299 q 317 350 325 332 q 308 391 310 368 q 306 443 306 414 q 307 508 307 472 l 183 508 l 183 50 q 153 159 171 114 q 115 232 136 204 q 72 274 94 260 q 24 290 49 288 q 72 343 56 315 q 94 393 88 371 q 99 428 100 415 q 97 439 99 442 q 100 565 99 506 q 102 668 101 617 q 103 747 103 719 q 78 768 90 764 q 55 766 67 772 q 30 747 43 760 q 0 715 17 733 q 18 765 6 746 q 48 797 31 785 q 86 818 65 810 q 128 835 107 826 q 215 892 171 853 q 292 972 260 931 q 274 922 288 946 q 247 878 261 897 q 219 847 232 860 q 201 833 206 835 q 194 823 196 831 q 189 808 192 815 q 185 789 186 799 q 183 704 183 746 l 183 565 l 307 565 l 306 606 q 285 607 296 604 q 263 613 275 610 q 240 626 251 617 q 224 639 229 635 q 215 646 218 643 q 208 651 211 649 q 200 661 206 654 q 219 654 210 657 q 236 649 229 651 q 251 644 244 646 l 271 642 z "},"e":{"ha":365,"x_min":19,"x_max":339,"o":"m 25 554 q 35 561 25 553 q 53 586 46 569 q 55 627 60 603 q 19 685 50 651 q 67 667 43 669 q 117 666 92 664 q 169 674 142 668 q 229 682 197 679 q 283 675 256 683 q 324 649 310 667 q 337 603 339 631 q 304 539 335 575 q 285 585 300 567 q 249 613 271 604 q 201 618 228 621 q 147 600 175 615 q 154 593 153 596 q 157 588 156 590 l 157 582 l 157 533 q 174 534 158 532 q 203 542 189 536 q 224 556 218 547 q 213 579 231 565 q 250 568 238 582 q 256 531 263 554 q 268 506 271 517 q 256 485 265 496 q 259 458 267 475 q 228 436 251 440 q 206 474 231 461 q 157 482 182 488 l 157 403 q 224 394 194 393 q 269 406 249 396 q 286 446 289 417 q 304 435 296 440 q 317 422 313 431 q 319 399 321 414 q 307 360 317 385 q 319 342 317 342 q 332 349 321 342 q 319 316 329 329 q 289 303 310 303 q 270 307 278 303 q 253 315 263 311 q 229 324 243 319 q 194 328 215 328 q 159 322 174 328 q 134 309 144 317 q 117 293 124 301 q 104 279 110 285 q 96 319 101 308 q 71 343 90 329 q 45 365 51 357 q 47 397 39 372 q 64 385 56 388 q 69 385 68 383 l 69 554 q 47 556 57 556 q 32 556 39 556 q 25 554 25 556 z "},"a":{"ha":335,"x_min":31,"x_max":288,"o":"m 285 214 q 268 288 282 256 q 231 337 257 315 q 161 356 206 358 q 209 388 199 367 q 215 431 219 408 q 197 472 210 453 q 176 497 185 490 q 140 451 160 469 q 110 419 121 433 q 127 405 119 410 q 145 399 135 400 q 169 402 156 399 q 201 413 182 406 q 176 394 186 401 q 157 378 165 386 q 140 362 149 371 q 118 339 131 353 q 56 383 76 365 q 33 419 35 401 q 47 457 31 436 q 93 511 63 478 q 133 573 128 549 q 126 610 138 597 q 92 623 114 622 q 54 614 71 624 q 76 635 63 622 q 118 651 90 649 q 190 674 161 660 q 236 710 218 688 q 265 765 254 733 q 288 840 276 797 q 288 772 288 813 q 287 681 288 731 q 286 578 286 632 q 286 472 286 524 q 285 214 285 350 m 215 558 l 215 639 q 203 629 210 633 q 188 624 196 626 q 171 621 181 621 l 215 558 z "},"r":{"ha":364,"x_min":24,"x_max":428,"o":"m 79 276 q 84 289 82 279 q 89 304 86 299 q 90 322 92 311 q 74 343 88 332 q 61 354 67 347 q 53 368 56 361 q 46 383 49 375 l 46 575 q 53 592 46 586 q 71 608 60 597 q 90 646 94 638 q 71 651 86 654 q 24 636 54 649 q 38 653 29 642 q 63 674 46 664 q 110 693 81 685 q 188 703 139 701 q 272 692 243 704 q 310 663 301 681 q 310 622 318 644 q 286 581 303 600 q 315 554 304 569 q 325 507 325 539 q 312 465 325 490 q 283 413 299 440 q 255 359 267 386 q 247 313 243 332 q 263 281 251 293 q 296 261 275 269 q 349 245 317 253 q 428 225 382 238 q 310 217 357 208 q 235 246 264 226 q 193 288 207 265 q 174 325 179 311 q 169 358 168 338 q 176 397 171 378 q 188 433 181 417 q 199 456 194 449 q 205 468 204 461 q 204 481 206 475 q 199 493 203 486 q 232 493 218 490 q 248 501 243 496 q 239 521 253 506 q 211 538 226 535 q 181 536 196 540 q 155 525 167 532 q 138 514 143 518 q 131 497 132 511 q 130 466 129 483 q 131 432 131 449 q 131 406 132 415 q 131 393 129 397 q 135 385 132 389 q 141 374 138 381 q 147 356 144 368 q 139 329 150 343 q 114 303 128 315 q 88 283 100 290 q 79 276 76 275 m 182 589 q 201 591 189 590 q 224 596 214 592 q 240 611 235 600 q 235 643 244 622 q 213 659 228 656 q 181 660 197 663 q 138 651 161 657 l 135 575 l 182 589 z "},"t":{"ha":349,"x_min":40,"x_max":317,"o":"m 267 735 q 269 736 264 736 q 281 734 274 736 q 297 726 289 732 q 307 711 304 721 q 311 701 310 701 q 313 698 313 700 q 311 689 313 696 q 308 661 310 682 q 289 628 306 640 q 253 608 272 615 q 201 599 229 601 l 229 351 q 253 347 239 347 q 281 349 264 347 q 317 360 297 351 q 289 328 294 343 q 286 303 283 314 q 299 279 289 289 q 269 275 289 275 q 221 281 251 275 q 138 301 190 286 q 64 344 85 317 q 42 401 43 371 q 53 458 40 431 q 83 500 67 485 q 81 443 76 464 q 94 410 86 422 q 118 389 104 394 q 128 411 122 396 q 135 444 132 424 q 140 494 139 464 q 137 542 142 525 q 125 569 132 560 q 108 583 118 581 q 115 589 111 585 q 135 604 122 596 q 79 651 104 624 q 43 719 54 679 q 126 674 90 688 q 190 662 163 661 q 234 672 217 663 q 260 694 251 682 q 271 719 269 707 q 267 735 272 731 z "},"s":{"ha":339,"x_min":-247,"x_max":325,"o":"m -247 0 q -194 38 -226 13 q -127 99 -167 60 q -32 201 -87 139 q 40 303 17 257 q 72 383 63 350 q 81 434 81 417 q 89 451 82 451 q 94 440 94 451 q 95 416 94 429 q 99 389 96 403 q 118 368 103 375 q 163 361 142 357 q 198 380 185 365 q 212 419 211 394 q 196 472 213 443 q 157 518 178 503 q 116 544 136 533 q 76 566 96 554 q 40 601 57 578 q 20 649 24 625 q 22 692 17 672 q 38 728 26 713 q 64 754 50 744 q 95 765 78 764 q 131 763 113 765 q 166 760 149 761 q 196 768 183 760 q 229 803 208 775 q 269 860 250 831 q 317 935 293 894 q 275 803 293 868 q 247 685 260 747 q 231 578 233 624 q 219 624 231 599 q 189 666 207 649 q 151 688 171 683 q 115 676 132 693 q 99 632 92 651 q 124 597 106 613 q 165 570 143 582 q 196 550 188 558 q 226 531 203 542 q 272 501 249 521 q 310 451 294 482 q 317 374 325 421 q 283 308 310 333 q 224 269 257 282 q 158 251 190 256 q 104 247 125 246 q 65 232 89 247 q 15 192 42 217 q -42 140 -12 168 q -96 86 -71 111 q -145 47 -119 63 q -194 19 -171 31 q -247 0 -221 7 z "},"x":{"ha":382,"x_min":1,"x_max":426,"o":"m 329 692 q 358 714 336 706 q 397 724 379 722 q 421 724 415 726 q 404 715 426 721 q 369 697 381 708 q 354 675 358 686 q 351 649 349 661 q 343 581 351 613 q 319 526 336 553 q 269 485 301 500 q 300 451 285 469 q 328 412 315 432 q 349 373 340 392 q 357 339 357 354 q 360 277 365 297 q 336 238 356 257 q 328 265 332 257 q 319 275 325 272 q 303 278 313 278 q 278 286 293 279 q 256 304 263 293 q 247 326 249 315 q 249 354 244 340 q 256 346 251 349 q 269 347 264 338 q 249 392 260 375 q 228 419 239 408 q 203 439 215 432 q 183 425 194 432 q 164 411 172 418 l 164 43 q 138 147 153 106 q 103 217 122 189 q 63 263 85 244 q 15 296 40 281 q 63 340 47 307 q 79 407 79 372 q 85 434 79 424 q 99 453 90 444 q 116 468 107 461 q 133 485 125 475 q 124 503 133 493 q 99 524 114 514 q 67 540 85 533 q 33 546 50 546 q 3 561 6 554 q 1 572 1 568 q 4 573 1 574 q 11 571 7 572 q 22 571 15 569 q 36 579 28 572 q 44 594 43 586 q 43 610 46 603 q 33 628 40 618 q 68 654 50 642 q 103 674 83 665 q 144 686 124 683 q 126 661 131 671 q 122 642 122 651 q 125 625 122 633 q 126 606 128 617 q 163 583 147 594 q 189 560 178 571 q 210 536 201 547 l 275 579 q 278 585 279 582 q 272 590 278 589 q 256 587 267 590 q 232 572 246 583 q 246 600 235 589 q 271 623 257 611 q 301 650 285 635 q 329 692 317 665 z "},"w":{"ha":585,"x_min":0,"x_max":547,"o":"m 92 668 q 81 692 92 686 q 56 692 71 697 q 26 670 42 686 q 1 628 11 654 q 11 672 0 649 q 40 714 22 694 q 80 748 58 733 q 121 767 101 763 q 201 808 161 775 q 267 876 240 840 q 247 822 260 844 q 219 782 233 799 q 186 749 204 763 q 181 749 183 753 q 177 736 178 746 q 176 704 176 726 q 176 671 176 693 q 176 620 176 649 q 177 559 176 592 q 178 493 178 526 q 179 326 178 417 q 201 314 190 319 q 222 308 211 310 q 240 310 232 306 q 252 333 246 313 q 263 384 258 354 q 269 445 267 414 q 269 500 271 476 q 259 533 267 524 q 236 526 251 542 q 258 557 247 546 q 280 575 269 568 q 299 586 290 582 q 315 597 308 590 q 326 617 321 604 q 334 641 331 629 q 339 662 338 653 q 340 672 340 671 q 344 663 340 672 q 350 642 347 654 q 356 615 353 629 q 357 590 358 600 l 346 332 q 358 307 349 315 q 381 299 367 300 q 422 315 396 299 q 454 366 447 332 q 460 439 461 400 q 453 515 458 478 q 449 575 447 551 q 449 625 449 597 q 451 681 449 653 q 463 735 454 708 q 488 783 471 763 q 515 813 506 804 q 531 822 525 821 q 538 820 536 822 q 540 818 539 818 q 532 803 542 818 q 513 762 522 789 q 501 695 504 735 q 515 606 499 656 q 547 435 547 504 q 522 322 546 367 q 492 280 511 300 q 446 251 472 260 q 388 248 419 242 q 322 285 357 254 q 238 251 286 250 q 113 293 189 253 q 75 309 88 306 q 58 313 63 313 q 53 313 53 313 q 51 317 53 313 q 44 334 50 322 q 24 371 39 346 q 54 354 43 360 q 72 347 65 349 q 83 348 79 346 q 93 354 88 350 q 106 372 106 363 q 104 391 107 381 q 97 411 101 401 q 93 429 93 421 q 93 476 93 438 q 93 556 93 514 q 92 633 93 599 q 92 668 92 667 z "},"z":{"ha":375,"x_min":17,"x_max":647,"o":"m 647 14 q 594 33 621 21 q 545 60 571 44 q 496 100 519 76 q 444 153 471 125 q 388 206 417 182 q 328 246 358 231 q 267 260 297 261 l 276 297 l 58 301 l 264 685 q 239 686 246 686 q 228 686 232 686 q 219 685 225 686 q 199 685 214 685 q 128 652 154 685 q 103 576 103 619 q 86 684 100 622 q 57 801 72 746 q 17 933 39 867 q 64 858 40 893 q 103 801 83 829 q 138 767 124 774 q 188 749 164 751 q 244 753 211 746 l 403 756 q 338 647 361 690 q 294 567 314 604 q 253 488 275 529 q 193 382 231 446 l 279 382 q 294 386 289 382 q 301 400 299 390 q 308 425 304 410 q 318 464 311 440 q 325 423 319 449 q 343 364 331 397 q 377 292 356 331 q 432 215 399 254 q 526 113 486 153 q 594 51 567 74 q 647 14 626 26 z "},"j":{"ha":242,"x_min":-43,"x_max":208,"o":"m 189 165 q 192 69 208 107 q 144 15 176 32 q 71 1 111 -1 q 2 26 31 4 q -35 88 -26 47 q -11 185 -43 128 q 2 121 -10 143 q 30 90 14 99 q 63 86 46 82 q 93 101 81 90 q 109 129 106 113 q 103 164 113 146 q 94 201 97 172 q 90 269 92 229 q 88 353 89 308 q 88 441 88 399 q 89 517 89 483 q 89 569 89 551 q 81 579 89 579 q 61 574 72 579 q 33 557 49 568 q 35 574 31 564 q 67 617 40 592 q 91 640 81 631 q 109 657 101 649 q 124 674 117 665 q 142 697 132 683 q 158 719 151 711 q 171 733 165 728 q 181 742 176 739 q 181 696 182 738 q 180 593 181 654 q 178 461 179 532 q 177 328 176 390 q 181 220 178 265 q 189 165 183 175 z "},"l":{"ha":215,"x_min":17,"x_max":175,"o":"m 147 238 q 129 246 144 242 q 94 261 114 250 q 76 284 75 272 q 71 311 78 296 q 54 333 64 326 q 44 363 44 339 q 64 367 53 358 q 72 375 69 371 q 74 549 72 471 q 74 615 74 582 q 74 674 74 647 q 75 718 75 700 q 75 742 75 736 q 67 751 75 751 q 47 746 58 751 q 19 729 35 740 q 21 746 17 736 q 53 789 26 764 q 77 812 67 803 q 95 829 88 821 q 110 847 103 838 q 128 869 118 856 q 144 892 138 883 q 157 906 151 900 q 167 914 163 911 q 163 660 164 775 q 162 563 163 611 q 160 474 161 514 q 160 408 160 435 q 160 372 160 381 q 172 356 169 364 q 171 335 175 347 q 136 311 143 328 q 132 278 129 294 q 142 248 135 261 q 147 238 149 235 z "},"q":{"ha":354,"x_min":6,"x_max":374,"o":"m 6 600 q 99 705 50 682 q 191 715 147 728 q 271 667 235 703 q 328 594 307 631 q 294 565 296 579 q 301 538 292 550 q 319 519 310 526 q 318 514 328 513 q 340 499 335 513 q 344 463 344 486 q 325 458 335 467 q 317 450 319 454 l 317 374 q 317 315 317 343 q 318 278 318 288 q 326 267 318 267 q 346 274 335 268 q 374 290 358 279 q 371 274 374 282 q 362 255 368 265 q 340 231 356 244 q 315 208 325 217 q 298 190 306 199 q 283 173 290 182 q 265 150 275 164 q 248 127 254 135 q 236 114 242 119 q 226 106 231 108 q 228 206 226 160 q 228 283 228 246 q 229 338 229 321 q 222 352 225 342 q 217 374 218 363 q 215 397 215 386 q 218 415 215 408 q 193 407 201 415 q 178 385 185 399 q 163 353 172 371 q 135 318 153 336 q 94 373 117 336 q 52 451 72 410 q 19 534 32 493 q 6 600 6 575 m 222 600 q 201 622 217 610 q 166 637 186 633 q 126 629 146 640 q 92 585 106 618 q 102 521 89 554 q 135 440 115 488 q 147 469 138 458 q 167 488 156 481 q 192 499 179 494 q 218 507 206 503 q 204 536 206 519 q 206 568 203 553 q 215 592 210 583 q 222 600 221 601 z "},"p":{"ha":411,"x_min":10,"x_max":381,"o":"m 381 590 q 367 524 381 565 q 334 442 354 483 q 292 363 314 400 q 251 308 269 326 q 223 344 232 326 q 208 375 214 361 q 193 397 201 389 q 168 406 185 406 q 170 388 169 399 q 169 365 171 376 q 165 342 168 353 q 157 328 161 332 q 157 274 157 311 q 158 196 157 236 q 160 96 158 150 q 150 104 156 99 q 138 117 144 110 q 121 140 131 125 q 103 163 111 154 q 88 181 96 172 q 70 198 81 189 q 46 221 60 207 q 14 264 18 246 q 13 281 10 272 q 40 264 28 269 q 60 258 51 258 q 68 268 68 257 l 68 364 q 69 440 68 400 q 61 449 67 444 q 42 453 51 457 q 47 490 42 476 q 68 504 51 503 q 67 510 57 503 q 85 528 76 517 q 92 555 94 540 q 58 585 90 569 q 115 657 79 621 q 195 706 151 693 q 288 695 239 718 q 381 590 336 672 m 164 590 q 171 583 165 592 q 180 558 176 574 q 182 526 183 543 q 168 497 181 510 q 194 489 181 493 q 219 478 207 485 q 240 460 231 471 q 251 431 249 449 q 284 511 271 478 q 294 575 297 544 q 260 619 281 608 q 220 627 240 631 q 185 612 200 624 q 164 590 169 600 z "},"h":{"ha":369,"x_min":-25,"x_max":390,"o":"m 236 565 q 258 560 244 565 q 287 547 272 556 q 312 523 301 538 q 322 488 322 508 l 321 353 q 345 322 332 333 q 390 300 358 311 q 330 298 358 300 q 278 314 301 296 q 263 340 267 322 q 256 378 258 358 q 255 419 254 399 q 256 451 256 439 q 248 490 256 478 q 227 507 240 503 q 196 510 214 511 q 158 508 178 508 l 158 50 q 128 159 146 114 q 90 232 111 204 q 47 274 69 260 q -1 290 24 288 q 47 343 31 315 q 69 393 63 371 q 74 428 75 415 q 72 439 74 442 q 75 565 74 506 q 77 668 76 617 q 78 747 78 719 q 53 768 65 764 q 30 766 42 772 q 5 747 18 760 q -25 715 -8 733 q -7 765 -19 746 q 23 797 6 785 q 61 818 40 810 q 103 835 82 826 q 190 892 146 853 q 267 972 235 931 q 249 922 263 946 q 222 878 236 897 q 194 847 207 860 q 176 833 181 835 q 169 823 171 831 q 164 808 167 815 q 160 789 161 799 q 158 704 158 746 l 158 565 l 236 565 l 236 565 z "},"G":{"ha":619,"x_min":-65,"x_max":631,"o":"m 597 857 q 587 747 603 785 q 545 697 571 710 q 490 692 519 685 q 442 719 461 700 q 418 765 422 739 q 438 814 414 790 q 452 769 433 782 q 492 758 471 756 q 524 780 513 761 q 514 831 535 799 q 455 872 497 858 q 365 886 413 886 q 272 872 317 886 q 206 829 228 857 q 218 814 219 822 q 214 806 217 806 q 213 778 213 806 q 213 711 213 751 q 213 623 213 671 q 215 535 214 575 q 215 467 215 494 q 214 440 215 440 q 230 437 213 440 q 274 430 247 433 q 334 424 301 426 q 394 424 367 422 q 440 435 421 426 q 458 461 458 443 q 449 517 458 499 q 429 535 440 535 q 408 518 418 535 q 394 471 397 501 q 383 519 381 496 q 401 561 386 542 q 441 594 415 581 q 499 613 467 607 q 553 633 529 617 q 594 669 576 650 q 631 717 614 692 q 614 663 625 689 q 587 614 604 639 q 540 571 569 589 l 540 326 l 540 97 q 488 194 517 161 q 417 250 460 226 q 449 306 442 282 q 457 361 457 331 q 427 351 449 354 q 381 347 406 349 q 334 344 357 346 q 301 342 311 343 q 262 324 274 335 q 253 303 250 314 q 273 283 256 292 q 322 274 290 275 q 221 259 254 250 q 171 290 188 268 q 147 338 154 313 q 125 374 139 364 q 94 392 110 383 q 69 410 79 400 q 54 435 58 421 q 58 469 50 449 q 82 444 71 450 q 100 439 93 439 q 117 446 108 439 l 117 644 q 100 653 108 646 q 83 669 93 658 q 67 700 74 681 q 110 744 101 721 q 111 783 119 768 q 81 798 103 797 q 32 774 58 799 q -21 692 6 749 q -65 535 -47 635 q -13 767 -62 678 q 109 903 36 856 q 266 963 182 950 q 423 963 350 975 q 545 922 496 951 q 597 857 594 892 z "},"J":{"ha":388,"x_min":25,"x_max":438,"o":"m 332 418 q 329 310 331 372 q 327 180 328 257 q 326 6 326 103 q 278 100 317 56 q 192 178 239 144 q 98 231 144 211 q 25 251 51 251 l 25 453 q 72 363 43 396 q 125 315 100 331 q 167 295 150 299 q 182 293 185 292 q 213 313 201 300 q 232 339 225 326 q 242 371 239 354 q 240 532 240 457 q 240 597 240 564 q 239 658 239 629 q 239 710 239 688 q 239 747 239 733 q 215 765 226 764 q 191 757 203 767 q 166 731 179 747 q 136 697 153 715 q 154 750 142 728 q 184 788 167 772 q 222 815 201 804 q 264 835 243 826 q 356 892 307 853 q 438 972 406 931 q 419 920 433 946 q 388 873 404 894 q 356 837 371 851 q 338 821 342 822 q 331 813 332 818 q 328 803 329 808 q 326 789 326 797 q 329 694 328 740 q 331 614 331 656 q 332 546 332 572 l 332 418 z "},"f":{"ha":363,"x_min":36,"x_max":350,"o":"m 188 260 q 169 268 185 264 q 135 283 154 272 q 117 306 115 294 q 111 333 118 318 q 94 355 104 349 q 85 385 85 361 q 104 389 93 381 q 113 397 110 393 q 111 457 111 426 l 111 574 q 101 576 106 574 q 90 578 96 578 q 78 574 85 578 q 60 560 71 571 q 56 592 60 582 q 48 611 53 603 q 40 630 43 619 q 36 664 36 640 q 60 648 49 651 q 81 645 71 644 q 98 649 90 646 q 111 653 106 653 l 111 708 q 103 718 111 718 q 83 713 94 718 q 56 696 71 707 q 57 713 53 703 q 89 756 63 731 q 113 778 103 769 q 130 796 122 788 q 145 814 138 804 q 164 836 153 824 q 211 877 188 865 q 256 890 235 889 q 297 883 278 892 q 328 861 315 874 q 346 826 342 846 q 343 787 350 806 q 319 755 336 768 q 278 742 303 742 q 308 790 307 764 q 294 831 310 817 q 251 842 278 846 q 200 800 225 839 q 201 721 200 754 q 201 650 201 688 q 233 649 215 650 q 268 651 250 649 q 303 659 286 653 q 336 681 321 665 q 327 645 336 663 q 307 610 318 628 q 287 578 296 593 q 278 549 278 563 q 237 573 254 572 q 200 574 219 574 l 200 394 q 213 378 210 386 q 211 357 215 369 q 176 333 183 350 q 172 300 169 317 q 182 270 175 283 q 188 260 189 257 z "},"c":{"ha":372,"x_min":22,"x_max":325,"o":"m 250 558 q 253 563 249 558 q 261 576 257 568 q 267 594 265 583 q 261 615 268 604 q 238 631 254 626 q 203 635 222 635 q 165 631 183 635 q 136 625 147 628 q 147 617 143 621 q 147 613 150 613 q 147 584 146 613 q 147 522 147 556 q 148 460 147 489 q 147 432 149 432 q 201 426 179 432 q 242 420 224 419 q 278 438 260 421 q 319 500 296 454 q 324 455 325 475 q 317 419 322 435 q 306 394 313 404 q 294 379 300 385 q 288 370 290 375 q 284 359 286 365 q 279 344 282 353 q 268 324 276 336 q 259 301 260 311 q 263 281 258 290 q 274 259 267 271 q 289 233 281 247 q 245 258 260 244 q 224 285 231 271 q 216 312 218 299 q 210 336 214 325 q 196 365 201 358 q 161 365 190 372 q 133 349 132 358 q 144 318 135 340 q 106 327 118 319 q 88 345 94 335 q 79 366 82 356 q 68 382 76 376 q 39 409 53 393 q 33 447 25 425 q 45 433 40 436 q 53 431 50 431 q 60 435 57 431 l 63 567 q 46 571 53 567 q 33 579 39 574 q 22 596 26 585 q 55 610 47 603 q 60 626 63 618 q 49 640 58 633 q 28 651 39 647 q 106 697 60 683 q 195 710 151 711 q 274 693 239 708 q 317 651 308 678 q 317 608 325 625 q 294 579 308 590 q 265 563 279 568 q 250 558 251 558 z "},"b":{"ha":417,"x_min":26,"x_max":397,"o":"m 397 376 q 304 272 353 294 q 212 261 256 249 q 132 310 168 274 q 75 382 96 346 q 109 412 107 397 q 102 438 111 426 q 83 457 93 450 q 85 463 74 464 q 63 477 68 464 q 58 514 58 490 q 78 518 67 510 q 86 526 83 522 q 85 603 85 567 l 85 699 q 76 708 85 708 q 57 703 68 708 q 29 686 44 697 q 31 703 26 693 q 63 746 36 721 q 87 769 76 760 q 105 786 97 778 q 120 803 113 794 q 138 826 128 813 q 154 849 147 840 q 167 863 161 857 q 176 871 172 868 q 175 771 175 817 q 174 692 174 731 q 174 639 174 654 q 181 624 178 635 q 186 602 185 614 q 187 578 188 590 q 185 561 186 567 q 210 569 201 561 q 224 592 218 578 q 240 623 231 606 q 268 658 249 640 q 308 603 286 640 q 351 525 331 567 q 384 442 371 483 q 397 376 397 401 m 181 376 q 201 354 186 365 q 237 340 217 343 q 277 347 257 336 q 311 392 297 358 q 301 456 314 422 q 268 536 288 489 q 256 507 265 518 q 235 489 247 496 q 210 478 224 482 q 185 469 197 474 q 199 440 197 457 q 197 408 200 424 q 188 383 193 393 q 181 376 182 374 z "},"L":{"ha":254,"x_min":0,"x_max":826,"o":"m 375 182 q 312 197 333 196 q 276 193 290 199 q 244 181 261 188 q 196 175 228 175 l 196 67 q 167 160 185 121 q 128 230 150 200 q 80 282 107 260 q 24 324 53 304 q 67 348 51 333 q 92 381 83 363 q 103 417 100 399 q 106 450 106 435 q 104 571 104 514 q 103 621 104 596 q 103 669 103 646 q 103 713 103 693 q 103 747 103 733 q 78 765 90 764 q 55 757 67 767 q 30 731 43 747 q 0 697 17 715 q 18 750 6 728 q 48 788 31 772 q 86 815 65 804 q 128 835 107 826 q 220 892 171 853 q 301 972 269 931 q 283 920 297 946 q 251 873 268 894 q 220 837 235 851 q 201 821 206 822 q 194 813 196 818 q 192 803 193 808 q 190 789 190 797 q 193 694 192 740 q 195 614 194 656 q 196 546 196 572 l 196 336 q 229 327 221 332 q 247 314 238 322 q 280 292 257 306 q 357 258 303 279 q 442 237 393 244 q 542 226 490 229 q 645 222 594 222 q 736 221 696 221 q 801 221 776 221 q 826 219 825 221 q 806 211 826 218 q 751 197 786 204 q 672 181 717 189 q 576 170 626 174 q 473 169 525 167 q 375 182 421 171 z "},"I":{"ha":149,"x_min":-62,"x_max":124,"o":"m 124 971 q 123 517 122 754 q 124 4 124 281 q 89 122 108 78 q 49 192 69 167 q 7 226 28 217 q -31 243 -14 236 q 19 307 -6 272 q 44 378 44 342 l 44 778 q 38 797 44 786 q 19 813 32 807 q -13 817 7 819 q -62 796 -33 814 q -27 842 -47 822 q 17 881 -7 863 q 71 918 44 901 q 124 971 97 935 z "},"u":{"ha":447,"x_min":26,"x_max":451,"o":"m 354 729 q 383 751 361 743 q 422 762 404 760 q 446 761 440 764 q 429 753 451 758 q 394 735 406 746 q 379 713 383 724 q 376 686 374 699 q 379 549 378 615 q 381 434 381 492 q 382 342 382 376 q 385 280 390 300 q 361 240 381 260 q 353 267 357 260 q 344 278 350 275 q 328 281 338 281 q 303 289 318 282 q 281 307 288 296 q 272 329 274 318 q 274 357 269 343 q 281 349 276 351 q 294 350 289 340 q 262 378 285 378 q 214 367 239 378 q 151 331 185 354 l 149 306 q 147 289 147 296 q 146 283 146 282 q 140 292 146 285 q 127 310 135 300 q 110 331 119 321 q 93 347 101 340 q 63 372 78 360 q 43 415 49 383 q 61 411 58 406 q 61 418 63 414 q 60 479 60 449 q 58 534 58 506 q 58 583 58 563 q 28 599 31 592 q 26 610 26 606 q 29 610 26 611 q 36 608 32 610 q 47 608 40 607 q 61 617 53 610 q 69 632 68 624 q 68 647 71 640 q 58 665 65 656 q 93 692 75 679 q 128 712 108 703 q 169 724 149 721 q 151 699 156 708 q 147 683 147 690 q 150 667 147 675 q 151 649 153 660 l 151 426 q 183 451 164 442 q 222 465 201 461 q 264 464 243 468 q 300 447 285 460 l 300 617 q 292 630 300 628 q 257 610 285 632 q 271 638 260 626 q 296 660 282 649 q 326 688 310 672 q 354 729 342 703 z "},"v":{"ha":439,"x_min":15,"x_max":440,"o":"m 343 729 q 372 751 350 743 q 411 762 393 760 q 435 761 429 764 q 418 753 440 758 q 383 735 394 746 q 368 713 372 724 q 365 686 363 699 l 365 450 q 322 415 333 435 q 306 375 310 394 q 301 339 303 356 q 286 315 299 322 q 290 253 294 274 q 265 214 285 233 q 258 241 261 233 q 248 251 254 249 q 232 255 242 254 q 207 263 222 256 q 185 281 192 269 q 176 303 178 292 q 178 331 174 317 q 185 322 181 325 q 199 324 193 314 q 180 351 197 336 q 140 382 163 365 q 97 416 118 399 q 65 451 75 433 q 67 497 65 474 q 67 541 68 521 q 61 573 65 561 q 47 583 57 585 q 17 599 19 592 q 15 610 15 606 q 18 610 15 611 q 25 608 21 610 q 35 608 29 607 q 50 617 42 610 q 58 632 57 624 q 57 647 60 640 q 47 665 54 656 q 82 692 64 679 q 117 712 97 703 q 158 724 138 721 q 140 699 144 708 q 136 683 136 690 q 139 667 136 675 q 140 649 142 660 q 145 580 146 622 q 144 506 144 538 q 183 460 160 485 q 238 406 207 435 q 255 457 244 426 q 292 506 265 488 l 289 617 q 281 630 289 628 q 246 610 274 632 q 260 638 249 626 q 285 660 271 649 q 315 688 299 672 q 343 729 331 703 z "},"y":{"ha":419,"x_min":15,"x_max":440,"o":"m 343 729 q 372 751 350 743 q 411 762 393 760 q 435 761 429 764 q 418 753 440 758 q 383 735 394 746 q 368 713 372 724 q 365 686 363 699 l 365 450 l 365 0 q 335 104 353 63 q 294 174 317 146 q 246 219 272 201 q 190 253 219 238 q 260 301 239 268 q 281 367 281 335 q 262 360 265 367 q 253 345 258 353 q 238 331 249 338 q 199 324 228 324 q 180 351 197 336 q 140 382 163 365 q 97 416 118 399 q 65 451 75 433 q 67 497 65 474 q 67 541 68 521 q 61 573 65 561 q 47 583 57 585 q 17 599 19 592 q 15 610 15 606 q 18 610 15 611 q 25 608 21 610 q 35 608 29 607 q 50 617 42 610 q 58 632 57 624 q 57 647 60 640 q 47 665 54 656 q 82 692 64 679 q 117 712 97 703 q 158 724 138 721 q 140 699 144 708 q 136 683 136 690 q 139 667 136 675 q 140 649 142 660 q 145 580 146 622 q 144 506 144 538 q 183 460 160 485 q 238 406 207 435 q 242 429 240 415 q 249 457 244 443 q 260 484 253 471 q 281 506 268 497 l 281 617 q 277 630 281 628 q 246 610 274 632 q 260 638 249 626 q 285 660 271 649 q 315 688 299 672 q 343 729 331 703 z "},"A":{"ha":403,"x_min":-82,"x_max":421,"o":"m 83 67 q 54 163 74 122 q 12 228 35 203 q -36 265 -11 253 q -82 276 -61 276 q -50 314 -65 297 q -23 349 -35 331 q -4 392 -11 368 q 3 447 3 415 q 25 583 3 522 q 73 694 47 644 q 121 785 99 744 q 143 858 143 825 q 146 897 143 885 q 148 917 149 908 q 138 938 147 926 q 106 972 129 949 q 197 955 160 972 q 258 909 235 938 q 290 845 281 881 q 300 772 300 810 q 301 710 300 743 q 309 640 303 678 q 328 559 315 603 q 365 463 342 515 q 408 348 394 392 q 408 277 421 304 q 351 233 394 250 q 222 196 307 215 q 208 245 210 226 q 206 281 207 264 q 201 315 206 297 q 176 358 196 332 q 224 326 206 336 q 256 313 242 315 q 283 316 269 311 q 317 331 296 321 q 302 363 313 344 q 281 404 292 382 q 260 452 269 426 q 244 506 250 478 q 205 496 226 501 q 162 477 183 490 q 120 438 140 464 q 83 367 100 413 l 83 67 m 107 554 q 122 565 108 558 q 155 578 136 571 q 192 591 174 585 q 219 600 211 597 q 219 630 222 608 q 211 678 215 651 q 206 733 207 706 q 214 782 206 761 q 194 753 206 774 q 172 707 183 733 q 147 653 160 681 q 126 602 135 625 q 111 565 117 579 q 107 554 106 551 z "},"B":{"ha":521,"x_min":-14,"x_max":518,"o":"m 382 596 q 450 522 424 568 q 492 425 476 475 q 513 330 507 375 q 518 260 518 285 q 430 141 475 181 q 340 91 385 101 q 251 94 294 81 q 171 134 208 107 q 103 197 133 161 q 53 268 72 233 q 94 297 83 282 q 103 324 106 311 q 92 349 101 338 q 74 368 83 360 q 62 381 65 376 q 68 383 58 385 q 38 404 44 386 q 31 458 31 422 q 44 457 38 454 q 57 464 51 460 q 69 476 63 469 q 68 586 68 536 l 68 724 q 56 737 68 738 q 28 729 43 736 q -11 707 11 722 q -8 731 -14 717 q 5 757 -6 742 q 36 792 15 772 q 71 824 57 811 q 97 848 85 836 q 119 874 108 860 q 143 908 129 888 q 169 940 158 928 q 186 960 179 953 q 200 971 194 967 q 228 921 206 943 q 281 878 251 899 q 344 839 311 858 q 406 800 378 819 q 453 758 435 781 q 471 711 471 736 q 466 672 471 686 q 450 646 461 657 q 422 624 439 635 q 382 596 406 613 m 164 835 q 164 807 164 833 q 163 747 164 781 q 163 682 163 714 q 163 638 163 650 q 172 616 168 631 q 178 585 176 601 q 180 551 181 568 q 176 526 179 535 q 215 538 201 526 q 242 570 229 550 q 269 615 254 590 q 311 667 283 640 q 315 674 308 669 q 331 683 322 678 q 348 695 340 688 q 356 711 356 703 q 344 744 356 733 q 317 763 333 756 q 283 779 301 771 q 249 803 264 788 q 215 828 231 821 q 188 838 200 836 q 170 838 176 840 q 164 835 164 836 m 324 532 q 308 483 324 508 q 265 435 294 461 q 178 382 236 410 q 192 351 186 371 q 197 308 197 331 q 192 267 197 286 q 178 240 188 249 q 227 204 199 225 q 289 177 256 183 q 358 189 322 171 q 431 271 394 207 q 413 358 429 313 q 376 443 396 404 q 324 532 353 489 z "},"C":{"ha":400,"x_min":-122,"x_max":733,"o":"m -119 393 q -87 640 -122 539 q 5 807 -53 742 q 137 905 63 872 q 290 947 211 938 q 446 944 369 956 q 584 912 522 933 q 686 861 646 890 q 733 804 726 832 q 583 856 667 838 q 422 875 500 875 q 283 856 344 875 q 201 793 222 836 q 217 779 210 789 q 228 760 224 769 q 233 744 232 751 q 232 738 235 738 q 203 716 214 738 q 188 663 192 694 q 190 593 185 631 q 212 524 196 556 q 254 473 228 493 q 319 456 281 453 q 335 349 319 386 q 379 296 351 313 q 444 277 407 279 q 522 275 481 275 q 563 281 539 275 q 612 290 588 288 q 658 290 636 293 q 690 268 679 286 q 643 266 671 271 q 590 250 615 261 q 549 222 565 239 q 539 185 533 206 q 497 181 528 176 q 431 195 467 186 q 364 213 396 204 q 319 221 332 221 q 244 192 272 221 q 207 128 215 163 q 214 64 199 93 q 269 33 229 35 q 190 31 217 21 q 151 62 163 40 q 138 112 139 83 q 139 167 138 140 q 138 214 140 194 q 121 238 136 233 q 79 253 99 243 q 47 277 60 263 q 31 312 35 292 q 38 358 28 332 q 74 315 50 325 q 122 315 97 306 q 165 348 146 324 q 188 408 183 372 q 137 456 156 428 q 111 533 118 485 q 89 544 100 536 q 68 566 79 551 q 47 604 57 581 q 112 688 97 647 q 117 750 126 728 q 78 772 107 772 q 15 733 50 771 q -57 613 -21 694 q -119 393 -93 531 z "},"D":{"ha":581,"x_min":-325,"x_max":560,"o":"m 147 788 q 146 779 149 790 q 142 752 143 768 q 143 720 140 736 q 161 697 146 704 q 185 678 176 690 q 200 653 194 665 q 208 621 206 638 l 208 285 q 251 282 226 279 q 306 295 274 285 q 383 331 339 306 q 447 401 426 356 q 469 495 468 446 q 453 590 469 544 q 407 660 436 635 q 341 708 376 685 q 259 753 306 732 q 151 791 213 774 q 10 819 90 808 q -135 853 -74 831 q -239 897 -196 875 q -325 950 -289 922 q -164 907 -244 928 q -17 872 -94 889 q 128 844 61 854 q 220 830 171 839 q 318 806 269 821 q 411 766 367 790 q 489 705 456 742 q 541 617 522 668 q 557 496 560 565 q 536 377 553 425 q 494 297 519 329 q 438 244 469 264 q 373 212 406 224 q 308 192 340 200 q 250 175 276 183 q 242 173 244 175 q 237 169 240 171 q 227 165 233 167 q 208 163 221 163 l 208 6 q 182 91 200 47 q 142 172 164 135 q 96 231 119 208 q 54 254 72 254 q 76 269 64 258 q 98 295 88 279 q 116 330 108 311 q 124 368 124 349 q 118 459 124 428 q 106 510 113 490 q 95 544 100 529 q 90 585 90 560 q 69 585 79 582 q 51 592 61 586 q 35 611 42 597 q 70 642 58 622 q 90 697 82 661 q 106 744 97 728 q 124 769 115 761 q 138 781 132 778 q 147 788 144 783 z "},"E":{"ha":669,"x_min":-14,"x_max":775,"o":"m 483 206 q 440 217 456 215 q 415 218 425 219 q 395 214 406 217 q 367 210 385 211 q 318 211 349 208 q 236 225 288 214 l 236 67 q 208 160 225 121 q 169 230 190 200 q 120 282 147 260 q 64 324 93 304 q 108 348 92 333 q 132 381 124 363 q 143 417 140 399 q 146 450 146 435 q 144 517 144 483 q 143 577 143 544 q 143 638 143 610 q 172 703 168 674 q 164 749 175 733 q 131 762 153 764 q 84 733 108 760 q 37 652 60 707 q 0 507 14 597 q 24 756 -14 660 q 128 903 61 851 q 278 967 194 954 q 440 967 361 981 q 578 918 518 953 q 660 840 639 883 q 552 883 610 865 q 437 904 494 900 q 325 898 379 908 q 228 856 271 888 q 237 834 226 854 q 255 781 247 814 q 261 705 263 747 q 233 617 260 663 q 318 611 274 614 q 396 613 363 608 q 443 635 429 618 q 438 690 457 651 q 464 681 453 689 q 481 660 475 672 q 490 636 488 649 q 493 615 493 624 q 513 602 507 613 q 521 578 519 592 q 517 554 522 565 q 503 540 513 543 q 500 492 519 511 q 450 467 481 472 q 449 502 456 488 q 429 526 443 517 q 395 540 415 535 q 354 547 375 544 q 236 546 304 553 l 236 336 q 293 298 253 313 q 385 275 333 283 q 496 265 438 267 q 608 263 554 263 q 707 266 663 264 q 775 269 751 268 q 722 245 749 253 q 663 232 696 238 q 586 221 629 226 q 483 206 543 215 z "},"F":{"ha":556,"x_min":-14,"x_max":660,"o":"m 236 225 l 236 67 q 208 160 225 121 q 169 230 190 200 q 120 282 147 260 q 64 324 93 304 q 108 348 92 333 q 132 381 124 363 q 143 417 140 399 q 146 450 146 435 q 144 517 144 483 q 143 577 143 544 q 143 638 143 610 q 172 703 168 674 q 164 749 175 733 q 131 762 153 764 q 84 733 108 760 q 37 652 60 707 q 0 507 14 597 q 24 756 -14 660 q 128 903 61 851 q 278 967 194 954 q 440 967 361 981 q 578 918 518 953 q 660 840 639 883 q 552 883 610 865 q 437 904 494 900 q 325 898 379 908 q 228 856 271 888 q 237 834 226 854 q 255 781 247 814 q 261 705 263 747 q 233 617 260 663 q 318 611 274 614 q 396 613 363 608 q 443 635 429 618 q 438 690 457 651 q 464 681 453 689 q 481 660 475 672 q 490 636 488 649 q 493 615 493 624 q 513 602 507 613 q 521 578 519 592 q 517 554 522 565 q 503 540 513 543 q 500 492 519 511 q 450 467 481 472 q 449 502 456 488 q 429 526 443 517 q 395 540 415 535 q 354 547 375 544 q 236 546 304 553 l 236 336 l 236 225 z "},"N":{"ha":679,"x_min":-3,"x_max":744,"o":"m 585 850 q 615 886 594 869 q 659 912 635 903 q 706 920 683 921 q 744 906 729 919 q 685 893 713 906 q 636 861 657 881 q 603 819 615 842 q 590 779 590 797 q 594 572 592 672 q 597 484 596 529 q 598 395 597 439 q 599 313 599 351 q 600 243 600 274 q 659 219 635 243 q 688 162 683 196 q 672 90 692 128 q 600 24 651 53 q 633 73 624 47 q 637 121 642 99 q 613 158 632 143 q 561 172 594 172 q 514 194 535 172 q 481 244 493 215 q 468 300 469 272 q 479 342 467 328 q 460 400 478 367 q 413 469 442 433 q 350 538 385 504 q 283 597 315 571 q 223 640 250 624 q 183 656 196 656 l 183 21 q 153 124 171 82 q 112 195 135 167 q 63 242 89 224 q 8 274 36 260 q 55 309 38 290 q 82 344 72 328 q 95 372 92 361 q 99 383 99 383 l 99 619 q 34 642 50 619 q 22 693 18 665 q 44 744 26 721 q 81 767 61 767 q 67 734 65 753 q 81 703 69 715 q 113 692 93 692 q 157 715 133 692 q 181 767 178 736 q 167 822 185 797 q 108 856 150 846 q -3 849 67 867 q 76 899 36 888 q 150 902 115 910 q 212 872 185 894 q 253 823 239 850 q 267 767 268 796 q 242 717 265 738 q 286 702 260 717 q 341 664 313 688 q 399 611 369 640 q 451 554 428 582 q 490 503 474 526 q 510 465 506 479 l 510 657 q 508 673 510 667 q 497 679 506 679 q 474 671 489 679 q 435 644 460 663 q 456 692 440 674 q 493 731 472 711 q 538 778 514 751 q 585 850 563 804 z "},"M":{"ha":657,"x_min":-104,"x_max":633,"o":"m 586 225 q 594 220 600 229 q 568 197 588 211 q 520 169 549 183 q 460 147 492 154 q 399 141 429 139 q 347 164 369 143 q 325 221 322 188 q 343 290 328 254 q 380 361 358 326 q 413 424 401 396 q 449 490 424 450 q 498 573 475 529 q 531 659 521 617 q 521 733 540 701 q 474 777 501 765 q 422 792 447 789 q 363 785 393 793 l 363 483 q 356 447 363 476 q 336 385 349 418 q 306 324 324 351 q 267 294 288 297 q 284 322 275 294 q 298 386 293 350 q 300 456 303 422 q 279 503 297 490 q 264 513 269 508 q 253 525 258 517 q 243 548 249 533 q 228 590 238 563 q 252 576 243 567 q 265 615 261 586 q 270 684 269 643 q 269 763 271 725 q 263 831 267 801 q 254 865 258 860 q 234 877 247 874 q 207 882 221 881 q 174 881 192 883 q 175 593 174 733 q 176 469 175 533 q 177 343 176 406 q 178 224 178 281 q 178 121 178 167 q 151 189 167 154 q 117 256 136 224 q 76 315 99 288 q 28 361 54 342 q 49 390 40 372 q 63 426 57 407 q 72 472 68 447 l 72 617 q 72 672 72 644 q 74 722 72 699 q 76 760 75 744 q 79 782 76 776 q 92 800 83 792 q 109 818 101 808 q 121 840 117 828 q 118 868 125 851 q 86 890 111 885 q 28 885 61 896 q -40 846 -4 875 q -104 767 -75 817 q -90 867 -104 831 q -47 924 -75 904 q 22 949 -19 943 q 118 956 64 954 q 281 933 225 957 q 363 850 338 908 q 467 853 418 867 q 551 809 515 839 q 608 741 588 779 q 631 672 629 703 q 597 531 633 610 q 472 351 561 453 q 424 280 433 307 q 422 238 414 253 q 452 217 431 222 q 499 213 474 213 q 549 218 525 214 q 586 225 574 222 z "},"O":{"ha":611,"x_min":-11,"x_max":606,"o":"m 468 51 q 449 108 468 89 q 405 135 431 128 q 353 142 379 142 q 311 142 326 142 q 188 179 246 142 q 85 275 129 217 q 15 403 40 333 q -11 536 -11 472 q 2 616 -11 583 q 35 672 15 649 q 77 713 54 696 q 119 748 100 731 q 152 784 139 765 q 165 829 165 803 q 165 858 165 843 q 161 888 165 872 q 146 921 157 903 q 114 960 135 939 q 194 927 160 936 q 256 915 228 918 q 308 908 283 911 q 358 897 332 906 q 415 867 385 888 q 485 807 444 847 q 572 673 544 746 q 602 531 599 600 q 592 409 606 463 q 557 335 578 356 q 538 310 550 322 q 516 287 526 297 q 499 271 506 276 q 496 268 493 265 q 476 251 489 261 q 451 231 464 242 q 424 212 438 221 q 404 199 411 203 q 403 182 397 192 q 422 161 410 172 q 448 137 433 150 q 472 110 463 124 q 482 81 481 96 q 468 51 483 65 m 250 829 q 222 735 250 769 q 162 674 194 701 q 101 617 129 647 q 74 536 74 588 q 91 446 74 499 q 140 344 108 393 q 215 260 171 294 q 311 226 258 226 q 372 274 343 254 q 422 317 400 293 q 442 337 431 326 q 466 358 454 347 q 485 378 478 368 q 493 397 493 389 q 512 444 503 407 q 519 532 521 481 q 496 641 517 583 q 425 749 475 699 q 363 800 390 783 q 313 823 335 817 q 275 829 290 829 q 250 829 260 829 z "},"P":{"ha":567,"x_min":-78,"x_max":557,"o":"m 557 800 q 544 742 557 775 q 513 671 531 708 q 476 594 494 633 q 447 517 457 554 q 438 449 436 481 q 461 394 439 417 q 390 406 419 394 q 340 433 361 417 q 303 467 318 449 q 274 502 289 486 q 244 529 260 518 q 208 540 229 540 q 208 474 208 518 q 208 376 208 431 q 208 261 208 321 q 208 149 208 201 q 208 56 208 96 q 208 0 208 15 q 175 112 194 67 q 132 187 156 157 q 82 235 108 217 q 28 265 56 253 q 73 303 57 282 q 97 343 89 325 q 108 372 106 361 q 110 378 110 382 q 110 417 110 394 q 109 462 110 439 q 108 506 108 485 q 108 540 108 526 q 86 545 100 540 q 56 551 72 550 q 25 547 40 553 q -3 522 10 542 q 15 571 -3 556 q 52 594 32 586 q 90 607 72 601 q 107 625 107 613 q 108 679 107 651 q 106 731 108 707 q 99 769 104 754 q 85 785 94 785 q 54 772 74 774 q 11 763 35 771 q -36 732 -12 754 q -78 660 -60 710 q -42 777 -76 719 q 46 880 -8 835 q 167 951 100 925 q 305 974 235 978 q 441 928 375 969 q 557 800 507 888 m 156 847 q 185 825 174 847 q 201 769 196 803 q 207 697 206 736 q 208 625 208 658 q 265 609 240 625 q 306 574 289 593 q 337 540 324 556 q 358 524 350 524 q 374 592 358 557 q 407 662 389 628 q 440 727 425 696 q 456 783 456 758 q 410 842 440 815 q 338 882 379 869 q 250 888 297 894 q 156 847 203 882 z "},"Q":{"ha":726,"x_min":51,"x_max":915,"o":"m 531 85 q 512 142 531 122 q 467 168 493 161 q 415 175 442 175 q 374 175 389 175 q 250 213 308 175 q 147 308 192 250 q 77 436 103 367 q 51 569 51 506 q 65 649 51 617 q 97 706 78 682 q 140 747 117 729 q 182 781 163 764 q 215 817 201 799 q 228 863 228 836 q 228 891 228 876 q 224 921 228 906 q 208 954 219 936 q 176 993 197 972 q 256 960 222 969 q 318 948 290 951 q 370 942 346 944 q 421 930 394 939 q 477 901 447 921 q 547 840 507 881 q 634 706 607 779 q 665 565 661 633 q 654 442 668 496 q 619 368 640 389 q 667 319 643 349 q 725 255 692 289 q 804 187 758 221 q 915 126 850 153 q 813 133 860 121 q 726 165 765 144 q 656 209 686 185 q 605 254 626 233 q 572 289 583 275 q 558 301 560 303 q 539 285 551 294 q 513 265 526 275 q 487 245 500 254 q 467 232 474 236 q 466 215 460 225 q 484 194 472 206 q 510 170 496 183 q 534 143 525 157 q 544 114 543 129 q 531 85 546 99 m 313 863 q 285 769 313 803 q 224 708 257 735 q 164 651 192 681 q 136 569 136 621 q 153 479 136 532 q 202 377 171 426 q 277 294 233 328 q 374 260 321 260 q 434 307 406 288 q 485 350 463 326 q 455 380 464 364 q 435 414 446 396 q 407 453 425 432 q 349 496 389 474 q 418 492 390 497 q 468 476 446 486 q 510 453 490 465 q 556 431 531 442 q 574 477 565 440 q 581 565 583 514 q 558 674 579 617 q 488 782 538 732 q 425 833 453 817 q 375 856 397 850 q 338 863 353 863 q 313 863 322 863 z "},"R":{"ha":621,"x_min":-57,"x_max":685,"o":"m 469 574 q 492 517 489 549 q 494 432 494 485 q 472 378 494 403 q 422 353 449 353 q 433 329 432 342 q 432 303 433 317 q 433 274 431 289 q 450 243 435 260 q 495 203 465 224 q 560 161 525 182 q 628 122 594 140 q 685 90 661 103 q 591 106 640 90 q 496 146 542 121 q 411 203 450 171 q 350 271 372 236 q 326 340 328 306 q 353 401 325 374 q 388 408 367 401 q 410 432 410 415 q 410 456 410 442 q 410 483 411 469 q 408 508 410 497 q 403 521 407 518 q 342 510 367 501 q 299 531 318 518 q 260 549 279 543 q 213 533 240 556 l 213 49 q 184 152 200 110 q 147 223 168 194 q 101 269 126 251 q 49 300 76 288 q 88 339 72 319 q 113 375 104 358 q 128 414 122 394 l 128 513 q 129 583 128 546 q 117 599 131 594 q 85 601 104 604 q 47 590 67 599 q 18 565 28 581 q 35 598 18 583 q 73 626 53 613 q 110 651 93 639 q 128 675 128 663 q 126 758 128 721 q 107 811 124 794 q 80 819 99 819 q 38 802 61 818 q -11 752 14 786 q -57 660 -36 718 q -30 765 -56 713 q 37 860 -4 817 q 131 933 78 903 q 242 970 185 963 q 359 960 300 978 q 471 890 418 942 q 522 821 501 860 q 545 740 542 782 q 531 655 549 697 q 469 574 514 613 m 175 861 q 197 829 189 853 q 208 772 204 806 q 212 699 211 739 q 213 618 213 660 q 265 635 240 640 q 310 617 289 629 q 349 596 331 604 q 383 604 368 588 q 394 617 388 608 q 408 632 401 625 q 453 691 443 661 q 458 747 464 721 q 438 796 453 774 q 410 832 424 818 q 306 892 361 882 q 175 861 251 901 z "},"S":{"ha":518,"x_min":-3,"x_max":524,"o":"m 118 300 q 89 313 103 317 q 60 299 75 308 q 31 284 46 290 q -3 292 15 278 q 52 338 32 310 q 88 392 72 365 q 123 439 104 418 q 175 464 142 460 q 148 427 151 444 q 144 404 144 410 q 153 338 143 360 q 186 310 163 317 q 251 312 221 300 q 305 347 282 324 q 341 403 328 371 q 352 469 354 436 q 331 533 350 503 q 272 583 313 564 q 199 619 229 604 q 147 651 168 635 q 114 690 126 668 q 96 744 101 711 q 94 769 94 754 q 97 800 94 785 q 102 830 99 815 q 111 851 106 844 q 122 888 129 876 q 98 898 115 900 q 60 879 81 896 q 26 829 39 863 q 52 909 26 882 q 126 942 78 936 q 172 938 146 943 q 225 928 199 932 q 276 931 251 925 q 317 963 300 938 q 343 977 322 971 q 391 985 364 983 q 447 982 418 986 q 494 966 475 978 q 518 933 513 954 q 506 878 524 911 q 494 928 515 911 q 442 947 472 946 q 384 933 411 947 q 356 890 357 919 q 362 839 356 854 q 374 808 368 824 q 379 767 379 792 q 367 689 379 743 q 348 756 367 719 q 303 817 329 792 q 249 850 278 843 q 200 831 221 857 q 178 768 172 794 q 206 721 183 742 q 262 683 229 700 q 321 653 294 667 q 357 631 332 646 q 405 588 382 617 q 442 513 428 558 q 444 400 456 467 q 447 361 440 375 q 458 335 453 347 q 464 303 464 322 q 447 249 464 285 q 446 286 450 274 q 435 304 442 299 q 419 309 428 310 q 407 308 411 308 q 381 292 396 307 q 342 259 367 276 q 279 227 317 242 q 183 213 242 213 q 126 229 153 213 q 97 274 100 246 q 125 274 121 263 q 118 300 129 286 z "},"T":{"ha":331,"x_min":-154,"x_max":407,"o":"m 294 981 q 304 982 290 982 q 337 978 318 982 q 374 965 356 974 q 397 939 392 956 q 405 912 403 924 q 407 890 407 900 q 404 867 407 879 q 399 840 401 856 q 364 783 392 804 q 306 750 336 761 q 228 731 269 736 l 228 382 l 228 33 q 197 123 217 81 q 153 198 176 165 q 110 250 131 231 q 75 272 89 269 q 107 307 94 286 q 127 349 119 328 q 137 385 135 369 q 139 407 139 401 q 139 444 139 432 q 138 469 139 456 q 138 506 138 483 q 138 578 138 529 q 130 660 138 633 q 113 697 122 686 q 89 706 101 710 q 101 717 94 711 q 116 728 108 722 q 135 743 124 735 q 108 759 126 749 q 69 781 89 769 q 31 805 49 793 q 4 824 13 817 q -36 838 -11 838 q -85 835 -61 838 q -129 837 -110 833 q -154 863 -149 840 q -118 860 -137 850 q -77 885 -99 871 q -31 907 -56 899 q 22 900 -7 915 q 138 844 86 860 q 227 832 189 829 q 290 851 265 835 q 323 889 314 867 q 325 936 332 911 q 294 981 318 961 z "},"U":{"ha":629,"x_min":1,"x_max":710,"o":"m 532 913 q 568 953 546 939 q 615 968 590 967 q 661 960 639 969 q 697 933 683 951 q 710 889 710 915 q 689 831 710 863 q 674 892 686 871 q 643 920 661 914 q 605 921 625 926 q 569 902 585 915 q 544 872 553 889 q 540 838 536 854 l 540 243 q 560 182 549 207 q 573 138 571 157 q 562 104 575 119 q 507 72 549 89 q 531 110 526 94 q 528 138 535 126 q 502 159 521 150 q 457 179 483 168 q 419 206 429 190 q 407 236 410 221 q 411 271 404 253 q 422 256 417 261 q 434 249 428 250 q 447 257 440 247 q 424 292 439 281 q 388 306 408 303 q 343 303 367 308 q 297 290 319 299 q 179 229 242 271 l 179 135 l 179 43 q 148 123 168 82 q 105 199 128 164 q 61 256 82 233 q 26 282 40 279 q 58 317 46 296 q 78 358 71 338 q 88 395 86 379 q 90 417 90 411 q 88 503 89 460 q 86 581 86 539 q 86 660 86 624 q 14 696 26 671 q 18 750 1 721 q 31 719 22 729 q 51 706 40 708 q 72 706 61 703 q 90 717 83 710 q 106 745 106 729 q 97 774 106 761 q 73 793 88 786 q 46 796 58 800 q 107 850 71 825 q 182 892 138 872 q 285 921 226 913 q 226 872 247 893 q 196 833 206 851 q 183 797 186 814 q 179 761 181 779 l 179 314 q 237 360 200 340 q 313 387 274 379 q 392 390 353 394 q 456 364 431 385 l 456 717 q 439 731 456 726 q 405 728 422 735 q 377 698 388 721 q 381 631 367 675 q 347 690 351 664 q 355 737 343 715 q 390 777 367 758 q 440 816 414 796 q 492 859 467 836 q 532 913 517 882 z "},"V":{"ha":618,"x_min":-58,"x_max":753,"o":"m 524 917 q 553 945 531 932 q 603 966 575 958 q 660 974 631 974 q 711 965 689 975 q 743 934 733 956 q 742 875 753 913 q 715 909 733 897 q 672 924 696 921 q 622 921 647 926 q 576 904 596 915 q 544 877 556 893 q 538 843 533 861 l 538 435 q 483 399 500 418 q 459 361 465 381 q 453 323 453 342 q 451 287 453 304 q 443 255 450 269 q 415 231 436 240 q 460 88 471 146 q 367 10 450 29 q 419 69 414 39 q 407 118 425 100 q 356 138 389 136 q 290 110 322 139 q 246 96 269 92 q 199 116 222 100 q 156 157 176 132 q 120 207 135 182 q 99 251 106 232 q 100 278 93 271 q 151 209 115 239 q 221 172 188 179 q 274 188 254 165 q 275 275 293 210 q 238 324 260 307 q 192 349 217 340 q 144 361 168 357 q 100 372 121 365 q 64 394 79 379 q 43 436 49 408 l 43 665 q -9 681 11 669 q -40 706 -29 693 q -55 732 -51 719 q -58 749 -58 744 q -52 737 -58 747 q -33 718 -46 726 q -2 708 -21 710 q 42 724 17 707 q 55 747 57 733 q 43 775 53 761 q 14 807 32 790 q 63 869 29 840 q 138 919 90 894 q 258 957 185 944 q 188 903 214 928 q 149 859 163 879 q 133 820 136 839 q 128 783 129 801 l 128 467 q 138 449 128 454 q 166 442 149 444 q 206 433 183 439 q 255 415 229 428 q 307 376 281 401 q 357 306 333 350 q 369 351 363 324 q 385 406 375 378 q 410 459 394 433 q 447 500 425 485 l 447 743 q 438 757 447 753 q 415 757 428 761 q 390 737 403 753 q 369 690 376 721 q 360 751 347 728 q 401 796 372 774 q 466 845 431 818 q 524 917 501 872 z "},"W":{"ha":661,"x_min":-58,"x_max":622,"o":"m 346 906 q 393 947 357 928 q 469 968 429 965 q 542 951 508 971 q 581 875 575 931 q 553 909 572 897 q 509 924 533 921 q 459 921 485 926 q 413 904 433 915 q 382 877 393 893 q 375 843 371 861 l 375 457 q 342 443 353 457 q 328 410 332 429 q 324 372 324 392 q 325 339 325 351 q 374 327 343 318 q 438 367 406 336 q 497 445 469 397 q 538 551 525 493 l 538 769 q 577 795 561 769 q 603 850 593 821 q 617 901 613 879 q 622 913 621 922 l 622 417 q 595 430 613 431 q 559 419 578 429 q 526 394 540 410 q 507 360 511 378 q 515 328 503 343 q 561 306 526 314 q 502 278 532 290 q 447 258 472 267 q 404 243 422 249 q 381 235 386 238 q 415 156 408 193 q 408 90 421 119 q 367 40 396 61 q 297 10 339 19 q 339 59 328 29 q 347 119 350 89 q 330 173 344 149 q 296 206 315 197 q 256 201 276 214 q 218 142 235 188 q 189 115 208 117 q 147 126 169 114 q 100 162 124 139 q 59 208 76 185 q 33 251 42 232 q 31 278 24 271 q 54 240 31 260 q 107 210 78 221 q 162 205 136 200 q 192 240 188 210 q 179 309 192 286 q 146 349 167 332 q 99 388 125 367 q 43 450 72 408 l 43 665 q -9 681 11 669 q -40 706 -29 693 q -55 732 -51 719 q -58 749 -58 744 q -52 737 -58 747 q -33 718 -46 726 q -2 708 -21 710 q 42 724 17 707 q 55 747 57 733 q 43 775 53 761 q 14 807 32 790 q 63 869 29 840 q 138 919 90 894 q 258 957 185 944 q 198 897 222 921 q 158 853 174 872 q 136 818 143 835 q 128 783 129 801 l 128 489 q 149 463 139 472 q 171 443 158 453 q 200 420 183 433 q 243 382 217 407 q 242 417 243 401 q 244 446 242 432 q 258 472 247 460 q 290 500 268 485 l 290 743 q 280 757 290 753 q 256 757 269 761 q 229 737 243 753 q 208 690 215 721 q 197 749 186 728 q 234 791 208 771 q 292 836 260 811 q 346 906 325 861 z "},"X":{"ha":563,"x_min":4,"x_max":622,"o":"m 160 801 q 186 809 172 814 q 215 791 200 804 q 244 760 229 778 q 271 729 258 742 l 374 831 q 399 859 389 847 q 403 879 410 871 q 370 881 392 890 q 313 835 349 871 q 334 886 313 864 q 382 928 356 908 q 430 967 408 949 q 451 1007 451 986 q 478 1061 451 1040 q 537 1080 504 1082 q 596 1049 569 1078 q 622 951 622 1019 q 601 1010 622 989 q 555 1033 581 1032 q 508 1012 529 1033 q 488 944 488 990 q 522 897 515 917 q 511 851 529 878 q 449 783 493 825 q 329 665 404 740 q 403 594 365 629 q 470 524 440 560 q 519 451 500 489 q 536 370 538 413 q 510 280 535 328 q 429 175 486 232 q 456 225 451 208 q 456 248 461 242 q 439 256 451 254 q 413 259 426 257 q 390 269 400 261 q 379 296 381 276 q 361 338 378 318 q 324 378 344 358 q 288 419 304 397 q 272 467 272 440 q 307 424 285 446 q 353 389 329 403 q 399 372 376 375 q 435 381 422 368 q 434 419 447 393 q 394 476 421 444 q 333 540 367 507 q 271 601 299 574 l 175 506 l 175 56 q 147 131 165 90 q 106 205 128 171 q 63 262 83 239 q 28 286 42 285 q 60 322 47 300 q 79 365 72 344 q 89 402 86 386 q 92 421 92 418 q 91 491 92 461 q 90 540 90 521 l 215 665 q 160 697 188 693 q 108 699 133 701 q 58 699 82 697 q 11 724 33 700 q 77 735 54 724 q 108 762 100 746 q 113 794 117 778 q 96 821 108 811 q 66 831 83 831 q 32 813 49 831 q 10 871 4 840 q 42 927 17 901 q 106 971 68 953 q 179 991 144 989 q 239 976 214 993 q 264 917 264 960 q 194 952 231 950 q 136 935 158 954 q 116 879 114 915 q 160 801 118 843 z "},"Y":{"ha":515,"x_min":-11,"x_max":594,"o":"m 397 933 q 447 961 414 950 q 512 972 479 972 q 569 953 544 971 q 594 892 594 935 q 535 936 565 929 q 481 934 506 943 q 442 908 457 925 q 426 881 426 890 l 426 597 l 426 58 q 386 180 417 138 q 315 244 356 222 q 231 274 275 265 q 149 296 186 283 q 89 332 113 308 q 65 408 65 356 q 147 364 99 375 q 238 366 194 353 q 311 417 281 379 q 342 519 342 454 q 315 505 322 519 q 295 473 307 490 q 260 441 283 456 q 188 426 238 426 q 219 483 222 461 q 194 522 217 504 q 139 556 172 539 q 79 600 106 574 l 79 758 q 12 771 32 758 q -10 799 -8 783 q 1 826 -11 814 q 33 839 14 839 q 17 815 18 824 q 24 803 15 807 q 47 800 32 800 q 79 800 63 800 q 71 851 79 840 q 33 861 63 861 q 49 896 33 876 q 94 932 64 915 q 167 960 124 949 q 268 971 211 971 q 232 944 250 953 q 199 923 214 935 q 174 892 183 911 q 164 836 164 874 l 164 633 q 187 615 176 621 q 207 603 197 608 q 227 592 217 599 q 250 574 238 586 q 259 600 250 590 q 282 615 268 610 q 312 622 296 619 q 342 624 328 624 l 342 797 q 334 820 342 813 q 314 822 326 828 q 286 797 301 817 q 257 739 271 778 q 267 814 257 789 q 296 855 278 839 q 340 886 314 871 q 397 933 365 901 z "},"Z":{"ha":561,"x_min":17,"x_max":558,"o":"m 558 288 q 508 317 526 319 q 478 292 490 314 q 456 235 465 269 q 431 167 446 200 q 393 110 417 133 q 331 86 369 86 q 403 178 390 146 q 378 226 415 211 q 256 244 342 242 q 33 247 171 247 q 20 272 17 263 q 31 290 24 282 q 42 309 39 299 q 28 336 44 319 l 351 853 q 252 853 289 853 q 196 844 215 854 q 170 807 176 833 q 164 726 164 781 q 126 774 135 756 q 114 808 117 793 q 107 835 111 822 q 85 868 103 849 q 146 886 124 868 q 176 928 168 904 q 178 978 183 953 q 156 1016 172 1003 q 115 1024 140 1029 q 58 986 90 1019 q 88 1056 58 1035 q 152 1077 117 1078 q 217 1054 188 1076 q 246 994 246 1032 q 252 969 246 978 q 276 957 258 960 q 327 954 294 954 q 413 954 360 954 l 525 951 l 161 351 q 257 351 224 351 q 315 360 290 351 q 363 390 339 368 q 432 457 388 413 q 441 409 432 425 q 465 385 450 393 q 495 372 479 376 q 526 360 511 368 q 549 335 540 351 q 558 288 558 319 z "},".":{"ha":264,"x_min":33,"x_max":233,"o":"m 199 8 l 68 8 q 54 58 60 35 q 42 97 47 78 q 33 126 36 117 l 100 54 q 94 47 94 54 q 103 39 94 39 q 113 48 114 39 q 103 57 111 57 q 110 80 106 64 q 119 113 114 96 q 133 156 125 132 q 147 110 142 131 q 157 76 153 92 q 163 57 161 61 q 156 48 156 57 q 164 39 156 39 q 174 47 174 39 q 167 56 174 56 q 178 69 168 58 q 201 93 189 81 q 233 126 217 108 l 199 8 z "},"*":{"ha":631,"x_min":-3,"x_max":631,"o":"m 521 506 l 107 506 q 60 664 82 589 q 23 790 40 728 q -3 882 6 851 l 207 656 q 194 647 199 656 q 190 630 189 639 q 198 613 192 621 q 218 604 204 604 q 240 613 233 604 q 247 631 247 621 q 238 651 246 642 q 218 660 231 660 q 239 733 224 681 q 271 839 254 785 q 313 976 290 903 q 356 832 336 899 q 372 776 364 804 q 388 725 381 749 q 401 684 396 701 q 408 661 406 667 q 391 652 397 661 q 385 633 385 643 q 392 613 385 622 q 413 604 399 604 q 433 613 426 604 q 439 630 439 621 q 434 647 439 639 q 419 656 429 656 q 433 672 422 660 q 458 701 443 685 q 492 738 474 718 q 531 779 511 758 q 631 885 576 826 l 521 506 z "},"!":{"ha":571,"x_min":97,"x_max":365,"o":"m 97 856 l 365 856 l 321 676 l 265 676 l 267 532 l 315 532 l 315 476 l 267 476 l 267 444 l 315 444 l 315 397 l 183 397 l 185 676 l 138 676 l 97 856 m 315 338 l 175 338 q 160 283 167 308 q 147 241 153 261 q 138 210 140 221 l 208 288 q 203 297 206 288 q 208 306 201 306 q 222 295 224 306 q 208 285 221 285 q 217 261 211 278 q 229 225 222 244 q 243 178 235 203 q 258 226 251 204 q 269 263 265 246 q 276 285 274 279 q 269 295 269 285 q 278 306 268 306 q 288 296 289 306 q 281 286 288 286 q 294 271 283 283 q 318 244 304 258 q 353 210 333 229 l 315 338 m 142 660 l 167 447 l 167 660 l 142 660 m 285 660 l 285 547 l 297 547 l 315 660 l 285 660 z "},"/":{"ha":388,"x_min":-25,"x_max":415,"o":"m -25 974 l 415 974 l 343 678 l 250 678 l 253 442 l 332 442 l 332 350 l 253 350 l 253 296 l 332 296 l 332 219 l 117 219 l 118 678 l 40 678 l -25 974 z "},"@":{"ha":579,"x_min":26,"x_max":544,"o":"m 340 299 q 328 353 338 329 q 301 388 319 372 q 250 401 282 404 q 285 425 278 410 q 290 457 293 440 q 276 488 286 474 q 261 506 267 501 q 235 472 250 485 q 213 449 219 458 q 240 435 228 436 q 279 443 251 435 q 260 429 268 435 q 247 419 253 424 q 235 407 242 414 q 219 390 229 400 q 173 423 188 410 q 157 449 158 436 q 167 476 156 461 q 200 515 178 492 q 228 561 225 543 q 224 588 232 579 q 200 598 215 597 q 172 590 185 599 q 190 606 179 597 q 219 618 200 615 q 272 634 251 624 q 305 661 292 644 q 326 701 318 678 q 343 756 335 724 q 343 701 343 735 q 343 629 343 668 q 342 548 343 590 q 342 467 342 506 q 341 433 342 447 q 340 396 340 418 l 340 299 m 290 550 l 290 608 q 281 601 286 604 q 257 596 269 596 l 290 550 m 363 411 q 405 417 379 411 q 454 436 431 422 q 495 474 478 450 q 513 535 513 497 q 505 626 513 585 q 476 699 497 668 q 418 748 456 731 q 321 765 381 765 q 135 701 199 765 q 71 501 71 638 q 91 388 71 433 q 145 310 111 342 q 223 259 179 279 q 314 225 267 239 q 197 246 250 225 q 106 303 144 267 q 47 391 68 340 q 26 503 26 442 q 47 626 26 571 q 106 722 68 682 q 199 782 144 761 q 322 803 254 803 q 433 785 390 803 q 501 732 476 767 q 535 647 526 697 q 544 535 544 597 q 531 465 544 493 q 498 418 518 436 q 454 391 478 400 q 410 378 431 382 q 376 375 390 375 q 363 376 363 375 l 363 411 z "}}}
